<svg height="491.33858" viewBox="0.00000 0.00000 774.80315 491.33858" width="774.80315" xmlns="http://www.w3.org/2000/svg" xmlns:cc="http://creativecommons.org/ns" xmlns:dc="http://purl.org/dc/elements/1.1/" xmlns:inkscape="http://www.inkscape.org/namespaces/inkscape" xmlns:rdf="http://www.w3.org/1999/02/22-rdf-syntax-ns">
<metadata>
<rdf:RDF>
<cc:Work>
<dc:format>
image/svg+xml
</dc:format>
<dc:date>
2024-01-03T22:06:24.931123300Z
</dc:date>
</cc:Work>
</rdf:RDF>
</metadata>
<g id="layer0" inkscape:groupmode="layer">
<path d="M186.41365,50.669292 L215.3831,50.669292 L218.27905,71.43852 L205.44336,71.43852 L186.41365,50.669292" fill="none" stroke="#000014" stroke-opacity="86.3%" stroke-width="0.3"/>
<path d="M221.42067,50.669292 L231.71481,50.669292 L251.74086,71.43852 L229.41458,71.43852 L221.42067,50.669292" fill="none" stroke="#000014" stroke-opacity="86.3%" stroke-width="0.3"/>
<path d="M254.41364,50.669292 L275.2603,50.669292 L278.3187,71.43852 L249.34325,71.43852 L254.41364,50.669292" fill="none" stroke="#000014" stroke-opacity="86.3%" stroke-width="0.3"/>
<path d="M269.01596,50.669292 L297.79144,50.669292 L303.792,71.43852 L290.70038,71.43852 L269.01596,50.669292" fill="none" stroke="#000014" stroke-opacity="86.3%" stroke-width="0.3"/>
<path d="M318.5457,50.669292 L319.81857,50.669292 L313.9656,71.43852 L315.78235,71.43852 L318.5457,50.669292" fill="none" stroke="#000014" stroke-opacity="86.3%" stroke-width="0.3"/>
<path d="M324.80536,50.669292 L354.03174,50.669292 L347.09683,71.43852 L348.6684,71.43852 L324.80536,50.669292" fill="none" stroke="#000014" stroke-opacity="86.3%" stroke-width="0.3"/>
<path d="M372.05087,50.669292 L374.55,50.669292 L368.882,71.43852 L369.27716,71.43852 L372.05087,50.669292" fill="none" stroke="#000014" stroke-opacity="86.3%" stroke-width="0.3"/>
<path d="M384.65128,50.669292 L415.97308,50.669292 L405.68225,71.43852 L390.64914,71.43852 L384.65128,50.669292" fill="none" stroke="#000014" stroke-opacity="86.3%" stroke-width="0.3"/>
<path d="M428.964,50.669292 L433.90097,50.669292 L451.4557,71.43852 L436.6157,71.43852 L428.964,50.669292" fill="none" stroke="#000014" stroke-opacity="86.3%" stroke-width="0.3"/>
<path d="M457.43115,50.669292 L477.80975,50.669292 L461.4524,71.43852 L441.8396,71.43852 L457.43115,50.669292" fill="none" stroke="#000014" stroke-opacity="86.3%" stroke-width="0.3"/>
<path d="M489.2298,50.669292 L485.2039,50.669292 L483.21906,71.43852 L478.1022,71.43852 L489.2298,50.669292" fill="none" stroke="#000014" stroke-opacity="86.3%" stroke-width="0.3"/>
<path d="M517.3144,50.669292 L515.2797,50.669292 L532.0374,71.43852 L499.04526,71.43852 L517.3144,50.669292" fill="none" stroke="#000014" stroke-opacity="86.3%" stroke-width="0.3"/>
<path d="M534.3385,50.669292 L545.85114,50.669292 L553.7651,71.43852 L538.5762,71.43852 L534.3385,50.669292" fill="none" stroke="#000014" stroke-opacity="86.3%" stroke-width="0.3"/>
<path d="M556.0998,50.669292 L572.6126,50.669292 L583.0015,71.43852 L557.075,71.43852 L556.0998,50.669292" fill="none" stroke="#000014" stroke-opacity="86.3%" stroke-width="0.3"/>
<path d="M207.67728,81.43852 L220.23315,81.43852 L212.23206,102.207756 L184.09914,102.207756 L207.67728,81.43852" fill="none" stroke="#000014" stroke-opacity="86.3%" stroke-width="0.3"/>
<path d="M223.97394,81.43852 L224.88594,81.43852 L224.32584,102.207756 L222.90913,102.207756 L223.97394,81.43852" fill="none" stroke="#000014" stroke-opacity="86.3%" stroke-width="0.3"/>
<path d="M264.27252,81.43852 L271.2758,81.43852 L269.97888,102.207756 L265.01825,102.207756 L264.27252,81.43852" fill="none" stroke="#000014" stroke-opacity="86.3%" stroke-width="0.3"/>
<path d="M292.34662,81.43852 L300.2561,81.43852 L289.74594,102.207756 L273.1987,102.207756 L292.34662,81.43852" fill="none" stroke="#000014" stroke-opacity="86.3%" stroke-width="0.3"/>
<path d="M319.27975,81.43852 L324.17328,81.43852 L327.58536,102.207756 L317.6113,102.207756 L319.27975,81.43852" fill="none" stroke="#000014" stroke-opacity="86.3%" stroke-width="0.3"/>
<path d="M326.81912,81.43852 L362.15442,81.43852 L337.87582,102.207756 L331.91812,102.207756 L326.81912,81.43852" fill="none" stroke="#000014" stroke-opacity="86.3%" stroke-width="0.3"/>
<path d="M380.25223,81.43852 L386.05298,81.43852 L386.4088,102.207756 L372.7883,102.207756 L380.25223,81.43852" fill="none" stroke="#000014" stroke-opacity="86.3%" stroke-width="0.3"/>
<path d="M400.65552,81.43852 L419.2868,81.43852 L410.86234,102.207756 L403.12476,102.207756 L400.65552,81.43852" fill="none" stroke="#000014" stroke-opacity="86.3%" stroke-width="0.3"/>
<path d="M419.00836,81.43852 L442.49728,81.43852 L425.13138,102.207756 L421.02512,102.207756 L419.00836,81.43852" fill="none" stroke="#000014" stroke-opacity="86.3%" stroke-width="0.3"/>
<path d="M438.9351,81.43852 L472.0028,81.43852 L471.74686,102.207756 L459.60095,102.207756 L438.9351,81.43852" fill="none" stroke="#000014" stroke-opacity="86.3%" stroke-width="0.3"/>
<path d="M479.18552,81.43852 L498.18945,81.43852 L489.8595,102.207756 L484.65262,102.207756 L479.18552,81.43852" fill="none" stroke="#000014" stroke-opacity="86.3%" stroke-width="0.3"/>
<path d="M518.6689,81.43852 L514.7565,81.43852 L533.1759,102.207756 L501.30942,102.207756 L518.6689,81.43852" fill="none" stroke="#000014" stroke-opacity="86.3%" stroke-width="0.3"/>
<path d="M551.4801,81.43852 L541.63184,81.43852 L543.27216,102.207756 L538.6869,102.207756 L551.4801,81.43852" fill="none" stroke="#000014" stroke-opacity="86.3%" stroke-width="0.3"/>
<path d="M552.2192,81.43852 L573.40173,81.43852 L585.03906,102.207756 L575.7846,102.207756 L552.2192,81.43852" fill="none" stroke="#000014" stroke-opacity="86.3%" stroke-width="0.3"/>
<path d="M200.94763,112.207756 L205.44023,112.207756 L214.77092,132.97699 L181.11305,132.97699 L200.94763,112.207756" fill="none" stroke="#000014" stroke-opacity="86.3%" stroke-width="0.3"/>
<path d="M222.91025,112.207756 L229.09746,112.207756 L245.7006,132.97699 L230.98915,132.97699 L222.91025,112.207756" fill="none" stroke="#000014" stroke-opacity="86.3%" stroke-width="0.3"/>
<path d="M263.65668,112.207756 L276.19846,112.207756 L262.3939,132.97699 L255.21706,132.97699 L263.65668,112.207756" fill="none" stroke="#000014" stroke-opacity="86.3%" stroke-width="0.3"/>
<path d="M275.01746,112.207756 L292.06354,112.207756 L296.4126,132.97699 L275.27264,132.97699 L275.01746,112.207756" fill="none" stroke="#000014" stroke-opacity="86.3%" stroke-width="0.3"/>
<path d="M317.60907,112.207756 L322.06076,112.207756 L332.8857,132.97699 L301.51215,132.97699 L317.60907,112.207756" fill="none" stroke="#000014" stroke-opacity="86.3%" stroke-width="0.3"/>
<path d="M346.44345,112.207756 L357.35794,112.207756 L357.1585,132.97699 L335.68497,132.97699 L346.44345,112.207756" fill="none" stroke="#000014" stroke-opacity="86.3%" stroke-width="0.3"/>
<path d="M360.91843,112.207756 L393.6748,112.207756 L367.00967,132.97699 L380.24326,132.97699 L360.91843,112.207756" fill="none" stroke="#000014" stroke-opacity="86.3%" stroke-width="0.3"/>
<path d="M385.4831,112.207756 L398.42697,112.207756 L395.20267,132.97699 L392.64737,132.97699 L385.4831,112.207756" fill="none" stroke="#000014" stroke-opacity="86.3%" stroke-width="0.3"/>
<path d="M428.1747,112.207756 L439.009,112.207756 L428.57117,132.97699 L412.61377,132.97699 L428.1747,112.207756" fill="none" stroke="#000014" stroke-opacity="86.3%" stroke-width="0.3"/>
<path d="M444.01822,112.207756 L473.3055,112.207756 L479.22076,132.97699 L442.75366,132.97699 L444.01822,112.207756" fill="none" stroke="#000014" stroke-opacity="86.3%" stroke-width="0.3"/>
<path d="M468.75128,112.207756 L484.297,112.207756 L496.61566,132.97699 L478.15503,132.97699 L468.75128,112.207756" fill="none" stroke="#000014" stroke-opacity="86.3%" stroke-width="0.3"/>
<path d="M513.7114,112.207756 L516.90796,112.207756 L512.2329,132.97699 L520.19257,132.97699 L513.7114,112.207756" fill="none" stroke="#000014" stroke-opacity="86.3%" stroke-width="0.3"/>
<path d="M537.8536,112.207756 L545.90656,112.207756 L542.02234,132.97699 L540.78827,132.97699 L537.8536,112.207756" fill="none" stroke="#000014" stroke-opacity="86.3%" stroke-width="0.3"/>
<path d="M562.49634,112.207756 L591.91034,112.207756 L580.72144,132.97699 L557.0874,132.97699 L562.49634,112.207756" fill="none" stroke="#000014" stroke-opacity="86.3%" stroke-width="0.3"/>
<path d="M198.8023,142.97699 L196.0457,142.97699 L209.97075,163.74622 L182.9158,163.74622 L198.8023,142.97699" fill="none" stroke="#000014" stroke-opacity="86.3%" stroke-width="0.3"/>
<path d="M231.47737,142.97699 L240.19002,142.97699 L245.15536,163.74622 L217.09872,163.74622 L231.47737,142.97699" fill="none" stroke="#000014" stroke-opacity="86.3%" stroke-width="0.3"/>
<path d="M241.6807,142.97699 L255.61606,142.97699 L273.31647,163.74622 L263.9018,163.74622 L241.6807,142.97699" fill="none" stroke="#000014" stroke-opacity="86.3%" stroke-width="0.3"/>
<path d="M267.41702,142.97699 L287.7491,142.97699 L296.05408,163.74622 L278.88943,163.74622 L267.41702,142.97699" fill="none" stroke="#000014" stroke-opacity="86.3%" stroke-width="0.3"/>
<path d="M317.6048,142.97699 L331.20712,142.97699 L317.2378,163.74622 L296.93686,163.74622 L317.6048,142.97699" fill="none" stroke="#000014" stroke-opacity="86.3%" stroke-width="0.3"/>
<path d="M327.30148,142.97699 L364.85666,142.97699 L360.53925,163.74622 L348.95618,163.74622 L327.30148,142.97699" fill="none" stroke="#000014" stroke-opacity="86.3%" stroke-width="0.3"/>
<path d="M378.7971,142.97699 L368.5498,142.97699 L383.91177,163.74622 L378.18112,163.74622 L378.7971,142.97699" fill="none" stroke="#000014" stroke-opacity="86.3%" stroke-width="0.3"/>
<path d="M384.59305,142.97699 L399.14532,142.97699 L406.08734,163.74622 L396.42892,163.74622 L384.59305,142.97699" fill="none" stroke="#000014" stroke-opacity="86.3%" stroke-width="0.3"/>
<path d="M427.0081,142.97699 L438.41437,142.97699 L423.77875,163.74622 L416.16068,163.74622 L427.0081,142.97699" fill="none" stroke="#000014" stroke-opacity="86.3%" stroke-width="0.3"/>
<path d="M447.38977,142.97699 L463.38925,142.97699 L455.9446,163.74622 L463.37598,163.74622 L447.38977,142.97699" fill="none" stroke="#000014" stroke-opacity="86.3%" stroke-width="0.3"/>
<path d="M481.11707,142.97699 L482.25552,142.97699 L504.88782,163.74622 L486.2504,163.74622 L481.11707,142.97699" fill="none" stroke="#000014" stroke-opacity="86.3%" stroke-width="0.3"/>
<path d="M501.98453,142.97699 L518.7344,142.97699 L517.86786,163.74622 L514.1537,163.74622 L501.98453,142.97699" fill="none" stroke="#000014" stroke-opacity="86.3%" stroke-width="0.3"/>
<path d="M530.8427,142.97699 L547.3913,142.97699 L559.99414,163.74622 L545.7323,163.74622 L530.8427,142.97699" fill="none" stroke="#000014" stroke-opacity="86.3%" stroke-width="0.3"/>
<path d="M558.2435,142.97699 L567.889,142.97699 L584.6256,163.74622 L571.13934,163.74622 L558.2435,142.97699" fill="none" stroke="#000014" stroke-opacity="86.3%" stroke-width="0.3"/>
<path d="M188.7046,173.74622 L207.43114,173.74622 L203.49771,194.51544 L192.58807,194.51544 L188.7046,173.74622" fill="none" stroke="#000014" stroke-opacity="86.3%" stroke-width="0.3"/>
<path d="M233.44582,173.74622 L240.21353,173.74622 L228.56458,194.51544 L210.94983,194.51544 L233.44582,173.74622" fill="none" stroke="#000014" stroke-opacity="86.3%" stroke-width="0.3"/>
<path d="M250.60399,173.74622 L270.10596,173.74622 L272.6117,194.51544 L263.2657,194.51544 L250.60399,173.74622" fill="none" stroke="#000014" stroke-opacity="86.3%" stroke-width="0.3"/>
<path d="M279.665,173.74622 L305.75504,173.74622 L294.81805,194.51544 L281.99564,194.51544 L279.665,173.74622" fill="none" stroke="#000014" stroke-opacity="86.3%" stroke-width="0.3"/>
<path d="M318.16577,173.74622 L318.9117,173.74622 L332.01486,194.51544 L308.66702,194.51544 L318.16577,173.74622" fill="none" stroke="#000014" stroke-opacity="86.3%" stroke-width="0.3"/>
<path d="M335.2632,173.74622 L352.39294,173.74622 L345.40524,194.51544 L327.19217,194.51544 L335.2632,173.74622" fill="none" stroke="#000014" stroke-opacity="86.3%" stroke-width="0.3"/>
<path d="M362.77615,173.74622 L377.35474,173.74622 L378.32166,194.51544 L379.77536,194.51544 L362.77615,173.74622" fill="none" stroke="#000014" stroke-opacity="86.3%" stroke-width="0.3"/>
<path d="M383.58734,173.74622 L413.00003,173.74622 L405.93948,194.51544 L391.30557,194.51544 L383.58734,173.74622" fill="none" stroke="#000014" stroke-opacity="86.3%" stroke-width="0.3"/>
<path d="M432.3919,173.74622 L423.76172,173.74622 L438.8164,194.51544 L428.42783,194.51544 L432.3919,173.74622" fill="none" stroke="#000014" stroke-opacity="86.3%" stroke-width="0.3"/>
<path d="M464.43356,173.74622 L463.1669,173.74622 L460.13516,194.51544 L458.05292,194.51544 L464.43356,173.74622" fill="none" stroke="#000014" stroke-opacity="86.3%" stroke-width="0.3"/>
<path d="M474.30466,173.74622 L501.6848,173.74622 L500.58456,194.51544 L487.82178,194.51544 L474.30466,173.74622" fill="none" stroke="#000014" stroke-opacity="86.3%" stroke-width="0.3"/>
<path d="M511.8742,173.74622 L512.2038,173.74622 L530.30597,194.51544 L498.50534,194.51544 L511.8742,173.74622" fill="none" stroke="#000014" stroke-opacity="86.3%" stroke-width="0.3"/>
<path d="M541.5189,173.74622 L565.79315,173.74622 L559.64636,194.51544 L530.1546,194.51544 L541.5189,173.74622" fill="none" stroke="#000014" stroke-opacity="86.3%" stroke-width="0.3"/>
<path d="M580.505,173.74622 L581.155,173.74622 L590.70306,194.51544 L563.8721,194.51544 L580.505,173.74622" fill="none" stroke="#000014" stroke-opacity="86.3%" stroke-width="0.3"/>
<path d="M206.75484,204.51544 L219.60162,204.51544 L210.41032,225.28468 L196.86365,225.28468 L206.75484,204.51544" fill="none" stroke="#000014" stroke-opacity="86.3%" stroke-width="0.3"/>
<path d="M227.52551,204.51544 L232.25972,204.51544 L232.38165,225.28468 L235.35785,225.28468 L227.52551,204.51544" fill="none" stroke="#000014" stroke-opacity="86.3%" stroke-width="0.3"/>
<path d="M244.44794,204.51544 L259.14368,204.51544 L278.37222,225.28468 L264.4251,225.28468 L244.44794,204.51544" fill="none" stroke="#000014" stroke-opacity="86.3%" stroke-width="0.3"/>
<path d="M269.78116,204.51544 L288.1262,204.51544 L283.8198,225.28468 L274.1995,225.28468 L269.78116,204.51544" fill="none" stroke="#000014" stroke-opacity="86.3%" stroke-width="0.3"/>
<path d="M303.19418,204.51544 L337.7088,204.51544 L327.50717,225.28468 L318.66092,225.28468 L303.19418,204.51544" fill="none" stroke="#000014" stroke-opacity="86.3%" stroke-width="0.3"/>
<path d="M340.44138,204.51544 L340.99997,204.51544 L342.85718,225.28468 L348.49896,225.28468 L340.44138,204.51544" fill="none" stroke="#000014" stroke-opacity="86.3%" stroke-width="0.3"/>
<path d="M353.0447,204.51544 L393.58072,204.51544 L371.79782,225.28468 L378.80124,225.28468 L353.0447,204.51544" fill="none" stroke="#000014" stroke-opacity="86.3%" stroke-width="0.3"/>
<path d="M402.87112,204.51544 L397.68738,204.51544 L419.688,225.28468 L398.2286,225.28468 L402.87112,204.51544" fill="none" stroke="#000014" stroke-opacity="86.3%" stroke-width="0.3"/>
<path d="M423.23868,204.51544 L424.89383,204.51544 L451.19824,225.28468 L433.1199,225.28468 L423.23868,204.51544" fill="none" stroke="#000014" stroke-opacity="86.3%" stroke-width="0.3"/>
<path d="M446.24548,204.51544 L478.05637,204.51544 L472.2557,225.28468 L446.90726,225.28468 L446.24548,204.51544" fill="none" stroke="#000014" stroke-opacity="86.3%" stroke-width="0.3"/>
<path d="M494.76343,204.51544 L507.46655,204.51544 L507.46378,225.28468 L469.39276,225.28468 L494.76343,204.51544" fill="none" stroke="#000014" stroke-opacity="86.3%" stroke-width="0.3"/>
<path d="M506.09076,204.51544 L518.2669,204.51544 L528.72363,225.28468 L521.50714,225.28468 L506.09076,204.51544" fill="none" stroke="#000014" stroke-opacity="86.3%" stroke-width="0.3"/>
<path d="M550.2853,204.51544 L555.6957,204.51544 L542.6953,225.28468 L525.3381,225.28468 L550.2853,204.51544" fill="none" stroke="#000014" stroke-opacity="86.3%" stroke-width="0.3"/>
<path d="M556.5565,204.51544 L577.4033,204.51544 L575.27686,225.28468 L561.4173,225.28468 L556.5565,204.51544" fill="none" stroke="#000014" stroke-opacity="86.3%" stroke-width="0.3"/>
<path d="M206.88472,235.28468 L208.48386,235.28468 L211.46767,256.0539 L199.54657,256.0539 L206.88472,235.28468" fill="none" stroke="#000014" stroke-opacity="86.3%" stroke-width="0.3"/>
<path d="M218.60754,235.28468 L224.92465,235.28468 L226.44283,256.0539 L232.11786,256.0539 L218.60754,235.28468" fill="none" stroke="#000014" stroke-opacity="86.3%" stroke-width="0.3"/>
<path d="M251.68968,235.28468 L273.86517,235.28468 L274.28522,256.0539 L247.94737,256.0539 L251.68968,235.28468" fill="none" stroke="#000014" stroke-opacity="86.3%" stroke-width="0.3"/>
<path d="M274.6436,235.28468 L299.78793,235.28468 L283.50595,256.0539 L278.49292,256.0539 L274.6436,235.28468" fill="none" stroke="#000014" stroke-opacity="86.3%" stroke-width="0.3"/>
<path d="M302.32297,235.28468 L319.39337,235.28468 L312.23013,256.0539 L301.14825,256.0539 L302.32297,235.28468" fill="none" stroke="#000014" stroke-opacity="86.3%" stroke-width="0.3"/>
<path d="M337.45914,235.28468 L356.02817,235.28468 L347.43857,256.0539 L335.059,256.0539 L337.45914,235.28468" fill="none" stroke="#000014" stroke-opacity="86.3%" stroke-width="0.3"/>
<path d="M370.1144,235.28468 L381.55902,235.28468 L389.53574,256.0539 L372.9098,256.0539 L370.1144,235.28468" fill="none" stroke="#000014" stroke-opacity="86.3%" stroke-width="0.3"/>
<path d="M386.92657,235.28468 L412.10526,235.28468 L415.15472,256.0539 L395.74548,256.0539 L386.92657,235.28468" fill="none" stroke="#000014" stroke-opacity="86.3%" stroke-width="0.3"/>
<path d="M414.90775,235.28468 L425.95325,235.28468 L429.28998,256.0539 L433.94315,256.0539 L414.90775,235.28468" fill="none" stroke="#000014" stroke-opacity="86.3%" stroke-width="0.3"/>
<path d="M455.28574,235.28468 L456.36136,235.28468 L472.51218,256.0539 L451.28812,256.0539 L455.28574,235.28468" fill="none" stroke="#000014" stroke-opacity="86.3%" stroke-width="0.3"/>
<path d="M489.99313,235.28468 L500.7403,235.28468 L490.9639,256.0539 L488.76,256.0539 L489.99313,235.28468" fill="none" stroke="#000014" stroke-opacity="86.3%" stroke-width="0.3"/>
<path d="M521.006,235.28468 L523.1145,235.28468 L532.9888,256.0539 L511.5544,256.0539 L521.006,235.28468" fill="none" stroke="#000014" stroke-opacity="86.3%" stroke-width="0.3"/>
<path d="M543.53357,235.28468 L553.00867,235.28468 L550.57495,256.0539 L531.5477,256.0539 L543.53357,235.28468" fill="none" stroke="#000014" stroke-opacity="86.3%" stroke-width="0.3"/>
<path d="M558.88074,235.28468 L588.29877,235.28468 L586.12024,256.0539 L571.2432,256.0539 L558.88074,235.28468" fill="none" stroke="#000014" stroke-opacity="86.3%" stroke-width="0.3"/>
<path d="M203.11641,266.0539 L220.66805,266.0539 L216.62112,286.82315 L185.38712,286.82315 L203.11641,266.0539" fill="none" stroke="#000014" stroke-opacity="86.3%" stroke-width="0.3"/>
<path d="M228.15536,266.0539 L232.18607,266.0539 L251.65323,286.82315 L219.4842,286.82315 L228.15536,266.0539" fill="none" stroke="#000014" stroke-opacity="86.3%" stroke-width="0.3"/>
<path d="M241.67546,266.0539 L270.28366,266.0539 L263.82013,286.82315 L251.41666,286.82315 L241.67546,266.0539" fill="none" stroke="#000014" stroke-opacity="86.3%" stroke-width="0.3"/>
<path d="M267.98148,266.0539 L286.98102,266.0539 L289.79398,286.82315 L270.95172,286.82315 L267.98148,266.0539" fill="none" stroke="#000014" stroke-opacity="86.3%" stroke-width="0.3"/>
<path d="M303.95673,266.0539 L323.85916,266.0539 L323.54987,286.82315 L319.06808,286.82315 L303.95673,266.0539" fill="none" stroke="#000014" stroke-opacity="86.3%" stroke-width="0.3"/>
<path d="M341.37158,266.0539 L364.44934,266.0539 L365.13657,286.82315 L343.42825,286.82315 L341.37158,266.0539" fill="none" stroke="#000014" stroke-opacity="86.3%" stroke-width="0.3"/>
<path d="M362.09036,266.0539 L383.13992,266.0539 L374.33127,286.82315 L380.51035,286.82315 L362.09036,266.0539" fill="none" stroke="#000014" stroke-opacity="86.3%" stroke-width="0.3"/>
<path d="M402.30045,266.0539 L411.0746,266.0539 L409.1247,286.82315 L384.97144,286.82315 L402.30045,266.0539" fill="none" stroke="#000014" stroke-opacity="86.3%" stroke-width="0.3"/>
<path d="M419.45328,266.0539 L446.91876,266.0539 L445.37094,286.82315 L422.06906,286.82315 L419.45328,266.0539" fill="none" stroke="#000014" stroke-opacity="86.3%" stroke-width="0.3"/>
<path d="M450.83496,266.0539 L466.0164,266.0539 L471.47177,286.82315 L456.57764,286.82315 L450.83496,266.0539" fill="none" stroke="#000014" stroke-opacity="86.3%" stroke-width="0.3"/>
<path d="M485.43604,266.0539 L489.1051,266.0539 L482.85214,286.82315 L476.0321,286.82315 L485.43604,266.0539" fill="none" stroke="#000014" stroke-opacity="86.3%" stroke-width="0.3"/>
<path d="M505.73254,266.0539 L519.09845,266.0539 L522.56976,286.82315 L515.3483,286.82315 L505.73254,266.0539" fill="none" stroke="#000014" stroke-opacity="86.3%" stroke-width="0.3"/>
<path d="M548.9332,266.0539 L542.9727,266.0539 L551.5563,286.82315 L536.7959,286.82315 L548.9332,266.0539" fill="none" stroke="#000014" stroke-opacity="86.3%" stroke-width="0.3"/>
<path d="M564.6768,266.0539 L591.4429,266.0539 L569.472,286.82315 L578.3633,286.82315 L564.6768,266.0539" fill="none" stroke="#000014" stroke-opacity="86.3%" stroke-width="0.3"/>
<path d="M188.61485,296.82315 L222.14249,296.82315 L214.94856,317.59238 L194.72827,317.59238 L188.61485,296.82315" fill="none" stroke="#000014" stroke-opacity="86.3%" stroke-width="0.3"/>
<path d="M213.25293,296.82315 L247.72186,296.82315 L237.87743,317.59238 L221.26187,317.59238 L213.25293,296.82315" fill="none" stroke="#000014" stroke-opacity="86.3%" stroke-width="0.3"/>
<path d="M261.8589,296.82315 L272.323,296.82315 L255.42004,317.59238 L250.57343,317.59238 L261.8589,296.82315" fill="none" stroke="#000014" stroke-opacity="86.3%" stroke-width="0.3"/>
<path d="M275.54294,296.82315 L292.05392,296.82315 L293.12982,317.59238 L288.6636,317.59238 L275.54294,296.82315" fill="none" stroke="#000014" stroke-opacity="86.3%" stroke-width="0.3"/>
<path d="M311.94086,296.82315 L327.82443,296.82315 L322.28003,317.59238 L313.68463,317.59238 L311.94086,296.82315" fill="none" stroke="#000014" stroke-opacity="86.3%" stroke-width="0.3"/>
<path d="M326.96262,296.82315 L346.68738,296.82315 L351.29022,317.59238 L351.67975,317.59238 L326.96262,296.82315" fill="none" stroke="#000014" stroke-opacity="86.3%" stroke-width="0.3"/>
<path d="M362.46136,296.82315 L388.70218,296.82315 L385.95816,317.59238 L361.4559,317.59238 L362.46136,296.82315" fill="none" stroke="#000014" stroke-opacity="86.3%" stroke-width="0.3"/>
<path d="M388.33197,296.82315 L401.3373,296.82315 L416.1916,317.59238 L393.71576,317.59238 L388.33197,296.82315" fill="none" stroke="#000014" stroke-opacity="86.3%" stroke-width="0.3"/>
<path d="M409.63095,296.82315 L428.1648,296.82315 L423.92758,317.59238 L432.7632,317.59238 L409.63095,296.82315" fill="none" stroke="#000014" stroke-opacity="86.3%" stroke-width="0.3"/>
<path d="M463.52875,296.82315 L464.2651,296.82315 L480.2164,317.59238 L462.8798,317.59238 L463.52875,296.82315" fill="none" stroke="#000014" stroke-opacity="86.3%" stroke-width="0.3"/>
<path d="M475.5486,296.82315 L483.3091,296.82315 L488.22504,317.59238 L482.31924,317.59238 L475.5486,296.82315" fill="none" stroke="#000014" stroke-opacity="86.3%" stroke-width="0.3"/>
<path d="M504.47867,296.82315 L522.48663,296.82315 L535.4067,317.59238 L497.48972,317.59238 L504.47867,296.82315" fill="none" stroke="#000014" stroke-opacity="86.3%" stroke-width="0.3"/>
<path d="M543.9935,296.82315 L550.233,296.82315 L563.57465,317.59238 L526.7695,317.59238 L543.9935,296.82315" fill="none" stroke="#000014" stroke-opacity="86.3%" stroke-width="0.3"/>
<path d="M576.99945,296.82315 L593.6901,296.82315 L593.33435,317.59238 L559.78864,317.59238 L576.99945,296.82315" fill="none" stroke="#000014" stroke-opacity="86.3%" stroke-width="0.3"/>
<path d="M182.50623,327.59238 L213.55925,327.59238 L213.17311,348.3616 L185.22466,348.3616 L182.50623,327.59238" fill="none" stroke="#000014" stroke-opacity="86.3%" stroke-width="0.3"/>
<path d="M227.24803,327.59238 L250.92126,327.59238 L239.5491,348.3616 L223.06073,348.3616 L227.24803,327.59238" fill="none" stroke="#000014" stroke-opacity="86.3%" stroke-width="0.3"/>
<path d="M240.04103,327.59238 L279.53146,327.59238 L269.8535,348.3616 L241.4756,348.3616 L240.04103,327.59238" fill="none" stroke="#000014" stroke-opacity="86.3%" stroke-width="0.3"/>
<path d="M290.00858,327.59238 L292.18213,327.59238 L290.38715,348.3616 L287.61823,348.3616 L290.00858,327.59238" fill="none" stroke="#000014" stroke-opacity="86.3%" stroke-width="0.3"/>
<path d="M295.95282,327.59238 L309.69653,327.59238 L310.86166,348.3616 L323.08817,348.3616 L295.95282,327.59238" fill="none" stroke="#000014" stroke-opacity="86.3%" stroke-width="0.3"/>
<path d="M349.50876,327.59238 L355.5685,327.59238 L350.6654,348.3616 L329.7566,348.3616 L349.50876,327.59238" fill="none" stroke="#000014" stroke-opacity="86.3%" stroke-width="0.3"/>
<path d="M360.42346,327.59238 L379.3016,327.59238 L368.3654,348.3616 L352.74597,348.3616 L360.42346,327.59238" fill="none" stroke="#000014" stroke-opacity="86.3%" stroke-width="0.3"/>
<path d="M407.64804,327.59238 L421.2682,327.59238 L420.6639,348.3616 L396.3205,348.3616 L407.64804,327.59238" fill="none" stroke="#000014" stroke-opacity="86.3%" stroke-width="0.3"/>
<path d="M421.00125,327.59238 L440.365,327.59238 L448.62354,348.3616 L429.77615,348.3616 L421.00125,327.59238" fill="none" stroke="#000014" stroke-opacity="86.3%" stroke-width="0.3"/>
<path d="M462.41064,327.59238 L453.11566,327.59238 L469.71603,348.3616 L465.2266,348.3616 L462.41064,327.59238" fill="none" stroke="#000014" stroke-opacity="86.3%" stroke-width="0.3"/>
<path d="M493.90817,327.59238 L493.68085,327.59238 L491.2895,348.3616 L478.1994,348.3616 L493.90817,327.59238" fill="none" stroke="#000014" stroke-opacity="86.3%" stroke-width="0.3"/>
<path d="M504.02457,327.59238 L532.0967,327.59238 L537.3723,348.3616 L505.25595,348.3616 L504.02457,327.59238" fill="none" stroke="#000014" stroke-opacity="86.3%" stroke-width="0.3"/>
<path d="M525.95044,327.59238 L562.46204,327.59238 L547.73376,348.3616 L538.5521,348.3616 L525.95044,327.59238" fill="none" stroke="#000014" stroke-opacity="86.3%" stroke-width="0.3"/>
<path d="M563.66486,327.59238 L585.99536,327.59238 L584.81793,348.3616 L575.57697,348.3616 L563.66486,327.59238" fill="none" stroke="#000014" stroke-opacity="86.3%" stroke-width="0.3"/>
<path d="M184.16406,358.3616 L217.7859,358.3616 L220.90044,379.13083 L201.62814,379.13083 L184.16406,358.3616" fill="none" stroke="#000014" stroke-opacity="86.3%" stroke-width="0.3"/>
<path d="M228.37122,358.3616 L224.18959,358.3616 L227.73206,379.13083 L211.80054,379.13083 L228.37122,358.3616" fill="none" stroke="#000014" stroke-opacity="86.3%" stroke-width="0.3"/>
<path d="M252.42496,358.3616 L275.01422,358.3616 L262.65958,379.13083 L244.38623,379.13083 L252.42496,358.3616" fill="none" stroke="#000014" stroke-opacity="86.3%" stroke-width="0.3"/>
<path d="M275.19794,358.3616 L294.13348,358.3616 L290.0392,379.13083 L281.01138,379.13083 L275.19794,358.3616" fill="none" stroke="#000014" stroke-opacity="86.3%" stroke-width="0.3"/>
<path d="M313.54,358.3616 L325.8537,358.3616 L325.83932,379.13083 L301.07147,379.13083 L313.54,358.3616" fill="none" stroke="#000014" stroke-opacity="86.3%" stroke-width="0.3"/>
<path d="M349.55557,358.3616 L355.43857,358.3616 L355.59143,379.13083 L344.82367,379.13083 L349.55557,358.3616" fill="none" stroke="#000014" stroke-opacity="86.3%" stroke-width="0.3"/>
<path d="M355.86902,358.3616 L368.35278,358.3616 L390.99826,379.13083 L356.2828,379.13083 L355.86902,358.3616" fill="none" stroke="#000014" stroke-opacity="86.3%" stroke-width="0.3"/>
<path d="M381.49072,358.3616 L407.75427,358.3616 L409.52975,379.13083 L405.27026,379.13083 L381.49072,358.3616" fill="none" stroke="#000014" stroke-opacity="86.3%" stroke-width="0.3"/>
<path d="M432.14337,358.3616 L447.0658,358.3616 L443.3951,379.13083 L423.00497,379.13083 L432.14337,358.3616" fill="none" stroke="#000014" stroke-opacity="86.3%" stroke-width="0.3"/>
<path d="M446.71768,358.3616 L467.75317,358.3616 L465.76834,379.13083 L456.98065,379.13083 L446.71768,358.3616" fill="none" stroke="#000014" stroke-opacity="86.3%" stroke-width="0.3"/>
<path d="M477.3208,358.3616 L501.47308,358.3616 L483.68927,379.13083 L493.6219,379.13083 L477.3208,358.3616" fill="none" stroke="#000014" stroke-opacity="86.3%" stroke-width="0.3"/>
<path d="M518.99304,358.3616 L522.11444,358.3616 L517.1717,379.13083 L503.10495,379.13083 L518.99304,358.3616" fill="none" stroke="#000014" stroke-opacity="86.3%" stroke-width="0.3"/>
<path d="M547.3849,358.3616 L562.1562,358.3616 L539.0601,379.13083 L524.30334,379.13083 L547.3849,358.3616" fill="none" stroke="#000014" stroke-opacity="86.3%" stroke-width="0.3"/>
<path d="M566.51935,358.3616 L582.39435,358.3616 L589.3961,379.13083 L556.97186,379.13083 L566.51935,358.3616" fill="none" stroke="#000014" stroke-opacity="86.3%" stroke-width="0.3"/>
<path d="M208.33179,389.13083 L211.89073,389.13083 L197.44803,409.90005 L181.25874,409.90005 L208.33179,389.13083" fill="none" stroke="#000014" stroke-opacity="86.3%" stroke-width="0.3"/>
<path d="M225.5903,389.13083 L248.34183,389.13083 L250.79721,409.90005 L213.76416,409.90005 L225.5903,389.13083" fill="none" stroke="#000014" stroke-opacity="86.3%" stroke-width="0.3"/>
<path d="M244.33565,389.13083 L267.27893,389.13083 L254.42168,409.90005 L250.42264,409.90005 L244.33565,389.13083" fill="none" stroke="#000014" stroke-opacity="86.3%" stroke-width="0.3"/>
<path d="M283.93094,389.13083 L304.56354,389.13083 L293.1771,409.90005 L293.5514,409.90005 L283.93094,389.13083" fill="none" stroke="#000014" stroke-opacity="86.3%" stroke-width="0.3"/>
<path d="M309.8784,389.13083 L330.9378,389.13083 L313.47678,409.90005 L319.72,409.90005 L309.8784,389.13083" fill="none" stroke="#000014" stroke-opacity="86.3%" stroke-width="0.3"/>
<path d="M351.09116,389.13083 L361.64795,389.13083 L340.29803,409.90005 L337.3654,409.90005 L351.09116,389.13083" fill="none" stroke="#000014" stroke-opacity="86.3%" stroke-width="0.3"/>
<path d="M373.37653,389.13083 L381.81778,389.13083 L369.64917,409.90005 L371.9632,409.90005 L373.37653,389.13083" fill="none" stroke="#000014" stroke-opacity="86.3%" stroke-width="0.3"/>
<path d="M401.8753,389.13083 L399.15686,389.13083 L400.1308,409.90005 L382.28088,409.90005 L401.8753,389.13083" fill="none" stroke="#000014" stroke-opacity="86.3%" stroke-width="0.3"/>
<path d="M417.38712,389.13083 L428.86197,389.13083 L430.0539,409.90005 L422.86908,409.90005 L417.38712,389.13083" fill="none" stroke="#000014" stroke-opacity="86.3%" stroke-width="0.3"/>
<path d="M440.8103,389.13083 L456.8637,389.13083 L465.4103,409.90005 L460.4199,409.90005 L440.8103,389.13083" fill="none" stroke="#000014" stroke-opacity="86.3%" stroke-width="0.3"/>
<path d="M472.40018,389.13083 L482.84723,389.13083 L498.6819,409.90005 L478.72736,409.90005 L472.40018,389.13083" fill="none" stroke="#000014" stroke-opacity="86.3%" stroke-width="0.3"/>
<path d="M509.13214,389.13083 L513.6368,389.13083 L519.93085,409.90005 L510.23203,409.90005 L509.13214,389.13083" fill="none" stroke="#000014" stroke-opacity="86.3%" stroke-width="0.3"/>
<path d="M531.18756,389.13083 L543.2308,389.13083 L562.84,409.90005 L528.16956,409.90005 L531.18756,389.13083" fill="none" stroke="#000014" stroke-opacity="86.3%" stroke-width="0.3"/>
<path d="M563.84296,389.13083 L570.3571,389.13083 L572.1053,409.90005 L557.4267,409.90005 L563.84296,389.13083" fill="none" stroke="#000014" stroke-opacity="86.3%" stroke-width="0.3"/>
<path d="M200.14212,419.90005 L223.1336,419.90005 L223.39761,440.66928 L186.38756,440.66928 L200.14212,419.90005" fill="none" stroke="#000014" stroke-opacity="86.3%" stroke-width="0.3"/>
<path d="M213.17532,419.90005 L232.87914,419.90005 L224.28885,440.66928 L226.46756,440.66928 L213.17532,419.90005" fill="none" stroke="#000014" stroke-opacity="86.3%" stroke-width="0.3"/>
<path d="M247.32298,419.90005 L258.1555,419.90005 L263.68384,440.66928 L252.7939,440.66928 L247.32298,419.90005" fill="none" stroke="#000014" stroke-opacity="86.3%" stroke-width="0.3"/>
<path d="M287.58084,419.90005 L283.57327,419.90005 L304.64737,440.66928 L270.7662,440.66928 L287.58084,419.90005" fill="none" stroke="#000014" stroke-opacity="86.3%" stroke-width="0.3"/>
<path d="M314.1746,419.90005 L326.47247,419.90005 L335.46027,440.66928 L304.69534,440.66928 L314.1746,419.90005" fill="none" stroke="#000014" stroke-opacity="86.3%" stroke-width="0.3"/>
<path d="M344.7358,419.90005 L356.6153,419.90005 L357.04977,440.66928 L330.98944,440.66928 L344.7358,419.90005" fill="none" stroke="#000014" stroke-opacity="86.3%" stroke-width="0.3"/>
<path d="M371.6803,419.90005 L382.89667,419.90005 L392.24408,440.66928 L358.40576,440.66928 L371.6803,419.90005" fill="none" stroke="#000014" stroke-opacity="86.3%" stroke-width="0.3"/>
<path d="M396.6402,419.90005 L396.09967,419.90005 L402.45474,440.66928 L404.37555,440.66928 L396.6402,419.90005" fill="none" stroke="#000014" stroke-opacity="86.3%" stroke-width="0.3"/>
<path d="M428.75937,419.90005 L446.15497,419.90005 L432.41296,440.66928 L434.6302,440.66928 L428.75937,419.90005" fill="none" stroke="#000014" stroke-opacity="86.3%" stroke-width="0.3"/>
<path d="M446.5166,419.90005 L477.95526,419.90005 L463.0317,440.66928 L452.72705,440.66928 L446.5166,419.90005" fill="none" stroke="#000014" stroke-opacity="86.3%" stroke-width="0.3"/>
<path d="M491.8962,419.90005 L496.38776,419.90005 L506.0961,440.66928 L474.71326,440.66928 L491.8962,419.90005" fill="none" stroke="#000014" stroke-opacity="86.3%" stroke-width="0.3"/>
<path d="M502.01035,419.90005 L514.9342,419.90005 L530.0347,440.66928 L520.85913,440.66928 L502.01035,419.90005" fill="none" stroke="#000014" stroke-opacity="86.3%" stroke-width="0.3"/>
<path d="M533.00287,419.90005 L556.3688,419.90005 L547.2664,440.66928 L537.0113,440.66928 L533.00287,419.90005" fill="none" stroke="#000014" stroke-opacity="86.3%" stroke-width="0.3"/>
<path d="M578.2752,419.90005 L572.9889,419.90005 L566.51184,440.66928 L571.1272,440.66928 L578.2752,419.90005" fill="none" stroke="#000014" stroke-opacity="86.3%" stroke-width="0.3"/>
</g>
</svg>