<?xml version="1.0" encoding="utf-8" ?>
<svg xmlns="http://www.w3.org/2000/svg" xmlns:cc="http://creativecommons.org/ns" xmlns:dc="http://purl.org/dc/elements/1.1/" xmlns:ev="http://www.w3.org/2001/xml-events" xmlns:inkscape="http://www.inkscape.org/namespaces/inkscape" xmlns:rdf="http://www.w3.org/1999/02/22-rdf-syntax-ns" xmlns:sodipodi="http://sodipodi.sourceforge.net/DTD/sodipodi-0.dtd" xmlns:xlink="http://www.w3.org/1999/xlink" baseProfile="tiny" height="12.99999993cm" version="1.2" viewBox="0 0 774.80315 491.33858" width="20.50000001cm">
  <metadata>
    <rdf:RDF>
      <cc:Work>
        <dc:format>image/svg+xml</dc:format>
        <dc:source>vpype read '.\day05_vera_molnar\output\vera_molnar_wild.svg' rotate 180 linemerge linesimplify reloop linesort write '%prop.vp_source.with_stem(prop.vp_source.stem + '&quot;'&quot;'_vpype'&quot;'&quot;')%' gwrite '.\day05_vera_molnar\output\vera_molnar_wild.svg.gcode'
</dc:source>
        <dc:date>2024-01-03T23:19:09.841799</dc:date>
      </cc:Work>
    </rdf:RDF>
  </metadata>
  <defs/>
  <g fill="none" id="layer1" inkscape:groupmode="layer" inkscape:label="1" stroke="#000014" stroke-width="0.3" style="display:inline">
    <polygon points="717.2803,430.778 701.2497,443.1693 693.0088,443.1693 704.2273,430.778"/>
    <polygon points="713.0296,425.778 690.844,425.778 683.2713,413.3867 713.2248,413.3867"/>
    <polygon points="712.7745,408.3867 691.1763,395.9954 706.8647,395.9954 711.3728,408.3867"/>
    <polygon points="703.833,408.3867 693.0441,408.3867 666.8577,395.9954 688.4494,395.9954"/>
    <polygon points="697.1711,390.9954 703.2966,378.6041 708.9547,378.6041 706.7968,390.9954"/>
    <polygon points="687.4145,373.6041 684.4861,361.2128 679.1924,361.2128 684.6675,373.6041"/>
    <polygon points="676.7392,378.6041 686.9718,390.9954 695.403,390.9954 666.473,378.6041"/>
    <polygon points="665.965,378.6041 678.4433,378.6041 680.575,390.9954 660.1651,390.9954"/>
    <polygon points="663.3281,378.6041 660.6197,378.6041 660.459,390.9954 636.0466,390.9954"/>
    <polygon points="656.4293,373.6041 628.5537,373.6041 631.2945,361.2128 638.3181,361.2128"/>
    <polygon points="651.9228,373.6041 651.2763,361.2128 643.5829,361.2128 659.4947,373.6041"/>
    <polygon points="659.01,361.2128 676.297,373.6041 654.4225,373.6041 666.3492,361.2128"/>
    <polygon points="647.615,343.8215 656.116,343.8215 655.3301,356.2128 635.4345,356.2128"/>
    <polygon points="641.2333,343.8215 631.5256,343.8215 636.1904,356.2128 646.1322,356.2128"/>
    <polygon points="642.4881,326.4302 639.1984,326.4302 632.6212,338.8215 632.1255,338.8215"/>
    <polygon points="647.7746,326.4302 665.186,326.4302 647.5059,338.8215 649.9902,338.8215"/>
    <polygon points="636.9466,321.4302 622.6609,321.4302 650.7657,309.0388 636.2353,309.0388"/>
    <polygon points="630.8072,309.0388 632.7546,309.0388 629.661,321.4302 602.6469,321.4302"/>
    <polygon points="635.2233,304.0388 638.1051,304.0388 647.4457,291.6476 626.5509,291.6476"/>
    <polygon points="647.6279,309.0388 649.4339,309.0388 652.7821,321.4302 643.6276,321.4302"/>
    <polygon points="662.316,304.0388 657.7717,304.0388 653.9811,291.6476 662.4546,291.6476"/>
    <polygon points="675.4808,291.6476 696.3119,291.6476 690.3608,304.0388 689.611,304.0388"/>
    <polygon points="681.9014,291.6476 661.668,304.0388 653.7718,304.0388 652.1107,291.6476"/>
    <polygon points="677.6821,274.2562 665.1601,286.6476 663.6409,286.6476 654.5309,274.2562"/>
    <polygon points="679.1809,269.2562 659.9069,256.8649 682.2746,256.8649 689.9103,269.2562"/>
    <polygon points="686.6233,269.2562 666.7425,256.8649 693.8192,256.8649 691.5807,269.2562"/>
    <polygon points="699.3043,269.2562 698.4738,256.8649 700.5366,256.8649 705.7404,269.2562"/>
    <polygon points="699.676,286.6476 677.8405,286.6476 677.8266,274.2562 701.1291,274.2562"/>
    <polygon points="703.6853,286.6476 686.3702,274.2562 709.4988,274.2562 719.7085,286.6476"/>
    <polygon points="704.642,291.6476 714.8278,291.6476 697.7206,304.0388 697.3658,304.0388"/>
    <polygon points="688.7383,309.0388 692.2047,309.0388 693.2382,321.4302 695.2678,321.4302"/>
    <polygon points="697.8064,321.4302 666.0383,309.0388 683.398,309.0388"/>
    <polygon points="673.7025,326.4302 700.13,326.4302 699.3414,338.8215 671.8858,338.8215"/>
    <polygon points="672.442,326.4302 683.8979,338.8215 654.4324,338.8215 680.7983,326.4302"/>
    <polygon points="672.4468,321.4302 671.6605,309.0388 685.3416,309.0388 673.5964,321.4302"/>
    <polygon points="679.2284,356.2128 666.5125,343.8215 676.0824,343.8215 667.0541,356.2128"/>
    <polygon points="687.4853,356.2128 689.5629,343.8215 691.0116,343.8215 704.7016,356.2128"/>
    <polygon points="686.2075,361.2128 689.2631,361.2128 709.1958,373.6041 701.5161,373.6041"/>
    <polygon points="701.9873,356.2128 690.6724,356.2128 691.5099,343.8215 712.8347,343.8215"/>
    <polygon points="720.2468,338.8215 681.5906,338.8215 690.7299,326.4302 711.1354,326.4302"/>
    <polygon points="668.4238,395.9954 665.7061,408.3867 668.0081,408.3867 655.6334,395.9954"/>
    <polygon points="674.9533,413.3867 663.41,413.3867 678.8757,425.778 654.2621,425.778"/>
    <polygon points="670.3135,425.778 669.4261,413.3867 695.9615,413.3867 683.7476,425.778"/>
    <polygon points="677.0046,443.1693 660.0727,430.778 659.2102,430.778 666.7054,443.1693"/>
    <polygon points="692.2502,443.1693 675.7361,430.778 705.5584,430.778 700.8924,443.1693"/>
    <polygon points="640.6365,443.1693 626.0354,443.1693 614.3512,430.778 612.8067,430.778"/>
    <polygon points="637.2626,430.778 654.15,430.778 672.6075,443.1693 656.7936,443.1693"/>
    <polygon points="635.8603,425.778 625.8877,413.3867 636.7244,413.3867 654.9686,425.778"/>
    <polygon points="626.7867,430.778 648.7635,430.778 656.7375,443.1693 618.5929,443.1693"/>
    <polygon points="614.9704,425.778 613.8381,425.778 589.5427,413.3867 619.3851,413.3867"/>
    <polygon points="625.7224,413.3867 617.0114,425.778 613.3386,425.778 609.4877,413.3867"/>
    <polygon points="631.6891,408.3867 648.0143,395.9954 642.8126,395.9954 632.4891,408.3867 605.3073,408.3867 624.9371,395.9954 610.4656,395.9954 632.404,408.3867"/>
    <polygon points="639.3019,413.3867 647.7392,413.3867 666.6743,425.778 646.2431,425.778"/>
    <polygon points="647.6003,395.9954 646.2707,395.9954 660.1166,408.3867 651.6649,408.3867"/>
    <polygon points="641.4885,390.9954 630.7393,390.9954 639.1769,378.6041 626.3444,378.6041"/>
    <polygon points="627.7505,390.9954 603.3937,390.9954 604.915,378.6041 631.4987,378.6041"/>
    <polygon points="616.4864,390.9954 599.7079,378.6041 598.0428,378.6041 624.4419,390.9954"/>
    <polygon points="601.0918,395.9954 605.8219,395.9954 611.7,408.3867 595.5502,408.3867"/>
    <polygon points="588.5992,395.9954 597.4417,395.9954 589.0367,408.3867 584.0025,408.3867"/>
    <polygon points="573.928,390.9954 580.7975,378.6041 611.5876,390.9954"/>
    <polygon points="569.0467,390.9954 545.2817,390.9954 567.8263,378.6041 576.9806,378.6041"/>
    <polygon points="575.777,378.6041 581.3853,378.6041 576.4215,390.9954 570.544,390.9954"/>
    <polygon points="572.4133,373.6041 586.5681,361.2128 573.611,361.2128 589.8109,373.6041"/>
    <polygon points="579.8395,356.2128 577.9902,343.8215 595.5082,343.8215 580.7794,356.2128"/>
    <polygon points="580.4365,356.2128 579.7337,356.2128 582.5337,343.8215 574.8384,343.8215"/>
    <polygon points="569.9824,338.8215 572.2544,338.8215 575.6785,326.4302 577.6141,326.4302"/>
    <polygon points="552.1164,338.8215 543.275,338.8215 556.3158,326.4302 570.1941,326.4302"/>
    <polygon points="546.7393,338.8215 539.0484,338.8215 515.4952,326.4302 516.1421,326.4302"/>
    <polygon points="537.7664,326.4302 543.8117,326.4302 537.6185,338.8215 548.3301,338.8215"/>
    <polygon points="522.7466,321.4302 500.7559,321.4302 514.3498,309.0388 520.1721,309.0388"/>
    <polygon points="517.8718,321.4302 531.3546,321.4302 523.1695,309.0388 516.5131,309.0388"/>
    <polygon points="518.4535,304.0388 505.02,291.6476 503.9548,291.6476 522.668,304.0388"/>
    <polygon points="523.2681,304.0388 509.0712,291.6476 546.392,291.6476 547.7828,304.0388"/>
    <polygon points="526.4093,286.6476 548.3835,274.2562 556.9348,274.2562 534.7835,286.6476"/>
    <polygon points="516.1821,286.6476 502.3472,286.6476 508.545,274.2562 499.1156,274.2562"/>
    <polygon points="526.9563,274.2562 523.8179,286.6476 539.4319,286.6476 515.2925,274.2562"/>
    <polygon points="527.7377,269.2562 552.9735,256.8649 536.2792,256.8649 548.1615,269.2562 508.515,269.2562 510.4874,256.8649 540.6861,256.8649 548.1501,269.2562"/>
    <polygon points="528.6694,251.8649 536.1282,251.8649 510.6676,239.4736 544.345,239.4736"/>
    <polygon points="518.545,239.4736 526.6045,251.8649 503.8768,251.8649 521.5736,239.4736"/>
    <polygon points="511.8015,234.4736 514.2964,222.0823 530.5753,234.4736"/>
    <polygon points="497.4848,239.4736 491.0911,251.8649 507.7523,251.8649 501.0289,239.4736"/>
    <polygon points="498.2295,256.8649 498.9895,269.2562 481.1706,269.2562 493.7188,256.8649"/>
    <polygon points="513.1738,256.8649 517.0871,269.2562 502.2997,269.2562 493.8188,256.8649"/>
    <polygon points="500.9203,274.2562 518.7016,286.6476 525.2646,286.6476 494.2864,274.2562"/>
    <polygon points="493.4821,286.6476 472.8086,274.2562 500.5188,274.2562 486.803,286.6476"/>
    <polygon points="489.2783,304.0388 487.5902,291.6476 499.8788,291.6476 500.6611,304.0388"/>
    <polygon points="480.3664,304.0388 446.5371,304.0388 451.8646,291.6476 470.458,291.6476"/>
    <polygon points="479.2618,304.0388 465.1634,291.6476 479.122,291.6476 477.9814,304.0388"/>
    <polygon points="486.3537,321.4302 490.9378,309.0388 507.4326,309.0388 495.3741,321.4302"/>
    <polygon points="469.6264,321.4302 478.1943,309.0388 474.7609,321.4302"/>
    <polygon points="466.2441,326.4302 470.8107,326.4302 498.3023,338.8215 508.8776,338.8215 479.2019,326.4302 502.1036,326.4302 498.3945,338.8215 479.0013,338.8215"/>
    <polygon points="464.9296,338.8215 443.0329,338.8215 441.6408,326.4302 449.1595,326.4302"/>
    <polygon points="479.9319,338.8215 467.6616,338.8215 454.5127,326.4302 474.3392,326.4302"/>
    <polygon points="481.7562,343.8215 501.7687,356.2128 467.7994,356.2128 484.3502,343.8215"/>
    <polygon points="495.7677,343.8215 486.8528,356.2128 493.0885,356.2128 477.0067,343.8215"/>
    <polygon points="496.9597,338.8215 497.3202,326.4302 501.0734,326.4302 506.7144,338.8215"/>
    <polygon points="503.4286,361.2128 527.9575,373.6041 513.4289,373.6041 510.3261,361.2128"/>
    <polygon points="516.3786,356.2128 503.9643,356.2128 504.2071,343.8215 523.9053,343.8215"/>
    <polygon points="528.7568,356.2128 531.842,356.2128 529.1591,343.8215 545.463,343.8215"/>
    <polygon points="522.9282,373.6041 510.4851,361.2128 523.4881,361.2128 539.2879,373.6041"/>
    <polygon points="533.4281,390.9954 514.4717,378.6041 545.3584,378.6041 525.0219,390.9954"/>
    <polygon points="524.9181,395.9954 530.702,395.9954 543.2142,408.3867 528.0168,408.3867"/>
    <polygon points="508.4279,390.9954 497.4345,378.6041 514.6892,378.6041 515.8223,390.9954"/>
    <polygon points="493.1235,395.9954 515.4693,395.9954 498.4935,408.3867 488.7056,408.3867"/>
    <polygon points="488.0003,390.9954 480.6997,378.6041 492.451,378.6041 473.6584,390.9954"/>
    <polygon points="486.8636,378.6041 515.4297,390.9954 484.504,390.9954 504.2753,378.6041"/>
    <polygon points="487.7555,361.2128 498.282,361.2128 479.7441,373.6041 483.1605,373.6041"/>
    <polygon points="480.6416,361.2128 498.0935,361.2128 494.9845,373.6041 500.7972,373.6041"/>
    <polygon points="461.2499,361.2128 474.0781,361.2128 474.8051,373.6041 454.097,373.6041"/>
    <polygon points="451.7866,356.2128 477.9901,343.8215 471.8227,356.2128"/>
    <polygon points="450.732,343.8215 442.3882,356.2128 434.095,356.2128 443.6822,343.8215"/>
    <polygon points="444.5563,326.4302 438.864,338.8215 416.6748,338.8215 446.7561,326.4302"/>
    <polygon points="449.8335,321.4302 418.4243,321.4302 444.8316,309.0388 437.4918,309.0388"/>
    <polygon points="451.9839,321.4302 452.8349,309.0388 470.8667,309.0388 470.247,321.4302"/>
    <polygon points="437.0299,321.4302 449.8191,309.0388 458.8283,309.0388 442.7485,321.4302"/>
    <polygon points="426.7583,326.4302 412.6979,326.4302 414.455,338.8215 404.1373,338.8215"/>
    <polygon points="421.9533,326.4302 401.7476,338.8215 383.5277,338.8215 395.4008,326.4302"/>
    <polygon points="407.9082,309.0388 428.5912,309.0388 433.7026,321.4302 404.4938,321.4302"/>
    <polygon points="415.755,304.0388 428.6522,291.6476 426.1899,291.6476 423.193,304.0388"/>
    <polygon points="425.4172,291.6476 433.7378,304.0388 420.8767,304.0388 434.1731,291.6476"/>
    <polygon points="440.7986,286.6476 443.4624,286.6476 424.2569,274.2562 421.9803,274.2562"/>
    <polygon points="448.6496,286.6476 450.4662,274.2562 454.0265,274.2562 477.8193,286.6476"/>
    <polygon points="459.2371,291.6476 454.0688,304.0388 451.1959,304.0388 461.7423,291.6476"/>
    <polygon points="455.1182,274.2562 463.6151,286.6476 442.5739,286.6476 452.8827,274.2562"/>
    <polygon points="449.2933,269.2562 449.0057,256.8649 458.8885,256.8649 485.9731,269.2562"/>
    <polygon points="445.2369,269.2562 423.2644,269.2562 420.6096,256.8649 450.0918,256.8649"/>
    <polygon points="439.9222,256.8649 462.0113,256.8649 466.9307,269.2562 436.5647,269.2562"/>
    <polygon points="434.7077,251.8649 438.2336,251.8649 423.8263,239.4736 422.8964,239.4736"/>
    <polygon points="447.0545,251.8649 466.2554,239.4736 469.3351,239.4736 472.1844,251.8649"/>
    <polygon points="466.7599,256.8649 500.5096,256.8649 498.2647,269.2562 488.6407,269.2562"/>
    <polygon points="468.2567,239.4736 454.1802,251.8649 455.99,239.4736"/>
    <polygon points="463.686,239.4736 488.9544,239.4736 488.3563,251.8649 473.5818,251.8649"/>
    <polygon points="458.0973,234.4736 472.8715,222.0823 481.9068,222.0823 466.4694,234.4736"/>
    <polygon points="447.333,222.0823 453.0708,234.4736 433.5443,234.4736 461.2249,222.0823"/>
    <polygon points="454.1042,217.0823 448.6381,204.691 437.972,204.691 469.161,217.0823"/>
    <polygon points="467.7054,217.0823 473.5213,204.691 471.3498,204.691 484.6414,217.0823"/>
    <polygon points="478.4988,222.0823 501.609,222.0823 494.5612,234.4736 503.821,234.4736"/>
    <polygon points="477.2994,234.4736 484.8419,222.0823 471.9762,222.0823 478.351,234.4736"/>
    <polygon points="485.2033,204.691 470.7838,217.0823 450.8175,217.0823 476.834,204.691"/>
    <polygon points="479.6578,199.691 467.3837,199.691 476.2447,187.2997 492.0638,187.2997"/>
    <polygon points="473.2655,199.691 463.5653,187.2997 472.5773,187.2997 481.5424,199.691"/>
    <polygon points="481.2376,187.2997 505.7022,187.2997 509.6102,199.691 506.6529,199.691"/>
    <polygon points="483.7655,182.2997 465.6805,169.9084 488.33,169.9084 476.8987,182.2997"/>
    <polygon points="483.222,169.9084 465.1526,182.2997 477.5214,182.2997 451.3933,169.9084"/>
    <polygon points="487.8719,169.9084 487.1188,169.9084 488.9997,182.2997 507.1924,182.2997"/>
    <polygon points="485.4446,164.9084 469.5831,164.9084 474.6119,152.5171 469.009,152.5171"/>
    <polygon points="491.8119,164.9084 500.276,164.9084 493.466,152.5171 507.0574,152.5171"/>
    <polygon points="497.1273,164.9084 504.4616,152.5171 529.9022,152.5171 528.4839,164.9084"/>
    <polygon points="486.2089,152.5171 471.558,152.5171 485.6914,164.9084 484.5092,164.9084"/>
    <polygon points="476.1763,147.5171 448.1172,147.5171 475.4221,135.1258 478.6355,135.1258"/>
    <polygon points="473.2504,147.5171 478.4386,147.5171 473.5921,135.1258 495.4524,135.1258"/>
    <polygon points="456.0859,147.5171 460.6238,147.5171 453.4136,135.1258 447.8716,135.1258"/>
    <polygon points="463.2192,130.1258 470.4496,117.7345 458.6492,117.7345 467.931,130.1258"/>
    <polygon points="469.4833,112.7345 473.9948,100.3432 481.5446,100.3432 500.1069,112.7345"/>
    <polygon points="475.0815,112.7345 461.9825,100.3432 454.4858,100.3432 480.526,112.7345"/>
    <polygon points="493.0007,112.7345 507.1386,100.3432 528.5459,100.3432 501.1007,112.7345"/>
    <polygon points="498.0474,117.7345 489.7844,130.1258 492.6632,130.1258 491.1567,117.7345"/>
    <polygon points="498.8715,135.1258 506.3566,135.1258 485.6721,147.5171 509.3945,147.5171"/>
    <polygon points="514.2957,130.1258 483.0911,130.1258 501.5438,117.7345 486.3351,117.7345"/>
    <polygon points="523.703,117.7345 513.7223,117.7345 517.3565,130.1258 522.1114,130.1258"/>
    <polygon points="525.1869,100.3432 532.4961,112.7345 523.0302,112.7345 521.3395,100.3432"/>
    <polygon points="523.9966,95.3432 555.7512,82.9519 560.943,82.9519 547.6012,95.3432"/>
    <polygon points="535.9905,95.3432 520.1014,95.3432 527.7882,82.9519 536.4126,82.9519"/>
    <polygon points="536.9849,100.3432 535.1018,112.7345 543.8984,112.7345 547.9156,100.3432"/>
    <polygon points="559.1884,100.3432 553.3497,112.7345 549.7118,112.7345 567.9773,100.3432"/>
    <polygon points="560.015,95.3432 559.6154,82.9519 550.2902,82.9519 575.3045,95.3432"/>
    <polygon points="575.1795,100.3432 568.2189,112.7345 577.6542,112.7345"/>
    <polygon points="586.0497,112.7345 603.1629,112.7345 597.2807,100.3432 590.4717,100.3432"/>
    <polygon points="591.1418,117.7345 580.8294,117.7345 609.2964,130.1258 591.9894,130.1258"/>
    <polygon points="591.659,117.7345 603.719,117.7345 606.3556,130.1258 596.8519,130.1258"/>
    <polygon points="595.8374,100.3432 602.3941,100.3432 604.7283,112.7345 595.8233,112.7345"/>
    <polygon points="593.087,95.3432 607.6306,82.9519 601.6785,82.9519 609.2417,95.3432"/>
    <polygon points="607.0804,100.3432 629.1951,100.3432 634.4744,112.7345 627.7996,112.7345"/>
    <polygon points="618.2379,95.3432 627.9938,82.9519 618.6949,82.9519 629.6732,95.3432"/>
    <polygon points="622.8529,112.7345 623.1803,100.3432 630.9986,100.3432 627.2619,112.7345"/>
    <polygon points="628.8174,117.7345 615.7985,130.1258 607.2749,130.1258 617.9546,117.7345"/>
    <polygon points="638.502,117.7345 631.0927,130.1258 628.8164,130.1258 642.0516,117.7345"/>
    <polygon points="624.9987,135.1258 630.5186,135.1258 656.919,147.5171 633.2401,147.5171"/>
    <polygon points="627.2481,152.5171 623.1287,164.9084 610.1545,164.9084 635.0187,152.5171"/>
    <polygon points="634.5064,164.9084 660.6916,152.5171 646.234,152.5171 648.904,164.9084"/>
    <polygon points="624.1161,182.2997 624.1657,169.9084 650.5003,169.9084 636.4002,182.2997"/>
    <polygon points="623.5751,182.2997 624.3714,182.2997 613.369,169.9084 633.4745,169.9084"/>
    <polygon points="610.5596,187.2997 588.934,199.691 603.1908,199.691 601.8863,187.2997"/>
    <polygon points="591.7082,199.691 606.3954,187.2997 625.5043,187.2997 615.8627,199.691"/>
    <polygon points="591.7033,204.691 598.4073,204.691 608.6368,217.0823 601.6991,217.0823"/>
    <polygon points="577.9962,199.691 551.4911,199.691 568.7154,187.2997 565.0979,187.2997"/>
    <polygon points="578.3745,187.2997 587.6408,187.2997 581.4572,199.691 561.354,199.691"/>
    <polygon points="574.812,182.2997 586.6528,169.9084 600.3215,169.9084 606.0044,182.2997"/>
    <polygon points="583.1214,182.2997 559.2798,169.9084 593.7205,169.9084 571.579,182.2997"/>
    <polygon points="588.0037,169.9084 601.6447,169.9084 596.306,182.2997 603.6765,182.2997"/>
    <polygon points="585.6934,164.9084 581.1968,152.5171 591.175,152.5171 574.1773,164.9084"/>
    <polygon points="605.699,164.9084 611.3284,164.9084 605.0751,152.5171 599.7419,152.5171"/>
    <polygon points="606.4533,164.9084 572.8016,164.9084 598.4152,152.5171 593.4265,152.5171"/>
    <polygon points="606.2955,147.5171 610.5307,135.1258 610.2972,135.1258 611.0932,147.5171"/>
    <polygon points="605.6984,135.1258 616.3493,135.1258 599.724,147.5171 598.6498,147.5171"/>
    <polygon points="601.2141,135.1258 596.7758,135.1258 580.7117,147.5171 598.4862,147.5171"/>
    <polygon points="575.7983,130.1258 570.2639,130.1258 572.5343,117.7345 574.8179,117.7345"/>
    <polygon points="565.4718,135.1258 576.4568,135.1258 570.9347,147.5171 557.4215,147.5171"/>
    <polygon points="554.0742,130.1258 534.0753,117.7345 542.9026,117.7345 546.2025,130.1258"/>
    <polygon points="538.7659,130.1258 532.6594,130.1258 536.9518,117.7345 528.4165,117.7345"/>
    <polygon points="542.9947,147.5171 514.2439,147.5171 514.0665,135.1258 547.5486,135.1258"/>
    <polygon points="536.3004,152.5171 543.4712,164.9084 530.6485,164.9084 512.7563,152.5171"/>
    <polygon points="535.5547,152.5171 556.2354,164.9084 536.4592,164.9084 551.5417,152.5171"/>
    <polygon points="529.4772,147.5171 533.718,135.1258 539.3237,135.1258 541.0077,147.5171"/>
    <polygon points="509.7869,147.5171 516.639,147.5171 492.6624,135.1258 527.5075,135.1258"/>
    <polygon points="523.7808,169.9084 513.9417,182.2997 502.7477,182.2997 521.7084,169.9084"/>
    <polygon points="518.8654,182.2997 510.7325,169.9084 516.2953,169.9084 527.0847,182.2997"/>
    <polygon points="534.667,182.2997 532.1633,169.9084 542.7509,182.2997"/>
    <polygon points="550.5685,182.2997 566.8254,169.9084 552.3791,169.9084 566.6867,182.2997"/>
    <polygon points="554.4826,204.691 552.2497,217.0823 555.9751,217.0823 548.5957,204.691"/>
    <polygon points="559.2577,204.691 568.7969,217.0823 542.5798,217.0823 562.8209,204.691"/>
    <polygon points="564.2211,217.0823 577.31,217.0823 566.0019,204.691 578.1364,204.691"/>
    <polygon points="557.041,222.0823 572.6545,222.0823 551.2266,234.4736 571.7225,234.4736"/>
    <polygon points="542.6783,222.0823 532.5922,234.4736 523.2842,234.4736 517.3943,222.0823"/>
    <polygon points="548.4298,234.4736 539.0393,222.0823 539.5626,222.0823 563.9195,234.4736"/>
    <polygon points="543.63,239.4736 532.43,251.8649 544.6289,251.8649 530.8452,239.4736"/>
    <polygon points="564.2954,239.4736 568.202,239.4736 572.6677,251.8649 579.1773,251.8649"/>
    <polygon points="564.5618,239.4736 555.0106,239.4736 573.2938,251.8649 563.3251,251.8649"/>
    <polygon points="580.3225,217.0823 572.848,217.0823 571.3375,204.691 581.178,204.691"/>
    <polygon points="595.7473,222.0823 598.6501,222.0823 616.7226,234.4736 599.2822,234.4736"/>
    <polygon points="594.0209,234.4736 574.593,234.4736 565.0104,222.0823"/>
    <polygon points="600.3614,234.4736 593.6999,222.0823 602.4641,222.0823 602.794,234.4736"/>
    <polygon points="601.4146,239.4736 584.4979,251.8649 599.9459,251.8649 596.3021,239.4736"/>
    <polygon points="603.7136,251.8649 605.9632,251.8649 606.5867,239.4736 597.1715,239.4736"/>
    <polygon points="609.1058,251.8649 604.3589,239.4736 618.2602,239.4736 633.1948,251.8649"/>
    <polygon points="603.2045,269.2562 622.7206,256.8649 628.9965,256.8649 638.1532,269.2562"/>
    <polygon points="602.3861,269.2562 604.2159,269.2562 614.9253,256.8649 605.3249,256.8649"/>
    <polygon points="602.0239,274.2562 626.9173,286.6476 587.0586,286.6476"/>
    <polygon points="607.2069,286.6476 593.5822,286.6476 586.9641,274.2562 607.9812,274.2562"/>
    <polygon points="614.358,286.6476 609.3263,286.6476 613.1834,274.2562 617.573,274.2562"/>
    <polygon points="616.2423,291.6476 622.3075,304.0388 630.0717,304.0388 621.331,291.6476"/>
    <polygon points="608.6786,304.0388 571.3968,304.0388 602.0169,291.6476 609.2886,291.6476"/>
    <polygon points="605.5209,304.0388 604.9167,291.6476 618.2684,291.6476 624.1592,304.0388"/>
    <polygon points="612.1067,309.0388 625.3729,309.0388 624.142,321.4302 613.1656,321.4302"/>
    <polygon points="605.6543,326.4302 621.3103,326.4302 637.9469,338.8215 610.4137,338.8215"/>
    <polygon points="599.9892,338.8215 599.8145,326.4302 587.4244,326.4302 610.2666,338.8215 600.3397,338.8215 613.734,326.4302 605.1322,326.4302 610.2742,338.8215"/>
    <polygon points="601.753,343.8215 605.5242,343.8215 608.593,356.2128 616.2695,356.2128"/>
    <polygon points="619.8984,361.2128 595.3101,373.6041 611.4423,373.6041 594.3638,361.2128"/>
    <polygon points="628.1594,356.2128 608.9136,356.2128 614.1778,343.8215 622.8232,343.8215"/>
    <polygon points="627.4072,373.6041 625.1978,373.6041 603.6414,361.2128 622.1707,361.2128"/>
    <polygon points="609.1348,373.6041 575.7147,373.6041 576.9858,361.2128 609.6651,361.2128"/>
    <polygon points="588.4112,413.3867 585.8179,425.778 559.4101,425.778 568.5122,413.3867"/>
    <polygon points="597.8859,425.778 594.5608,425.778 580.2604,413.3867 593.8396,413.3867"/>
    <polygon points="608.6054,443.1693 607.1746,430.778 602.5832,430.778 626.8561,443.1693"/>
    <polygon points="581.9964,443.1693 600.9896,443.1693 585.2336,430.778 610.1834,430.778"/>
    <polygon points="570.7911,443.1693 563.992,443.1693 542.3143,430.778 550.7562,430.778"/>
    <polygon points="555.883,430.778 585.8331,430.778 573.4626,443.1693 566.7549,443.1693"/>
    <polygon points="555.7613,430.778 542.3813,430.778 531.9829,443.1693 537.9437,443.1693"/>
    <polygon points="546.9521,425.778 569.2384,413.3867 562.534,413.3867 566.0113,425.778"/>
    <polygon points="536.9327,430.778 548.4208,443.1693 519.7263,443.1693 527.0929,430.778"/>
    <polygon points="533.4485,425.778 515.2695,425.778 519.1009,413.3867 525.3339,413.3867"/>
    <polygon points="536.8675,413.3867 560.5042,413.3867 535.4433,425.778 549.1748,425.778"/>
    <polygon points="538.584,408.3867 547.0706,395.9954 539.422,395.9954 540.1013,408.3867"/>
    <polygon points="524.9584,413.3867 509.6548,413.3867 500.559,425.778 496.6902,425.778"/>
    <polygon points="506.2255,413.3867 488.858,425.778 477.0206,425.778"/>
    <polygon points="502.1875,408.3867 516.8036,395.9954 529.5743,395.9954 503.9161,408.3867"/>
    <polygon points="497.2968,408.3867 489.474,408.3867 471.731,395.9954 495.8831,395.9954"/>
    <polygon points="477.8668,413.3867 459.8472,425.778 454.7007,425.778 464.7886,413.3867"/>
    <polygon points="472.0851,413.3867 489.1971,425.778 462.8756,425.778 469.8383,413.3867"/>
    <polygon points="472.8448,430.778 484.8421,430.778 474.746,443.1693"/>
    <polygon points="484.8531,443.1693 492.8305,443.1693 485.0071,430.778 485.2798,430.778"/>
    <polygon points="506.2582,443.1693 525.4477,430.778 505.2232,430.778 515.6289,443.1693"/>
    <polygon points="507.7444,443.1693 487.2398,443.1693 498.0301,430.778 502.7269,430.778"/>
    <polygon points="460.6964,395.9954 455.1753,395.9954 456.8272,408.3867 456.1527,408.3867"/>
    <polygon points="458.5955,395.9954 470.3639,395.9954 441.7935,408.3867 435.1504,408.3867"/>
    <polygon points="463.7825,390.9954 476.1965,378.6041 469.1366,378.6041 480.96,390.9954"/>
    <polygon points="458.0872,373.6041 447.7175,361.2128 462.7796,361.2128 454.2667,373.6041"/>
    <polygon points="439.6286,390.9954 445.7678,390.9954 457.9248,378.6041 456.5558,378.6041"/>
    <polygon points="424.0887,390.9954 429.9847,378.6041 449.4482,378.6041 446.737,390.9954"/>
    <polygon points="417.9778,395.9954 427.1514,408.3867 424.1594,408.3867 419.1862,395.9954"/>
    <polygon points="406.4444,395.9954 395.3671,408.3867 387.0414,408.3867 394.4511,395.9954"/>
    <polygon points="389.4198,395.9954 402.1279,395.9954 379.8445,408.3867 369.4908,408.3867"/>
    <polygon points="386.6904,390.9954 362.6318,390.9954 382.1434,378.6041 360.1159,378.6041"/>
    <polygon points="378.7788,390.9954 399.7428,390.9954 367.2592,378.6041 386.2697,378.6041"/>
    <polygon points="364.7118,395.9954 345.4237,395.9954 354.2718,408.3867 364.4023,408.3867"/>
    <polygon points="366.8199,408.3867 368.6567,395.9954 371.4527,395.9954 360.9576,408.3867"/>
    <polygon points="381.4665,413.3867 359.2669,413.3867 376.2311,425.778 358.6635,425.778"/>
    <polygon points="399.1232,413.3867 375.0465,425.778 399.7225,425.778 390.1393,413.3867"/>
    <polygon points="412.4708,413.3867 408.5837,413.3867 420.6335,425.778 396.9194,425.778"/>
    <polygon points="413.1003,413.3867 406.4802,413.3867 433.7611,425.778 416.8447,425.778"/>
    <polygon points="425.9347,413.3867 430.3413,425.778 441.5504,425.778 441.6241,413.3867"/>
    <polygon points="435.5611,413.3867 443.1873,413.3867 460.8499,425.778 437.3847,425.778"/>
    <polygon points="442.2197,408.3867 418.4638,408.3867 420.7671,395.9954 422.5623,395.9954"/>
    <polygon points="441.7895,430.778 448.4553,443.1693 439.6915,443.1693 431.3717,430.778"/>
    <polygon points="432.8195,430.778 447.0846,443.1693 421.1642,443.1693 415.8281,430.778"/>
    <polygon points="434.6604,443.1693 426.3041,443.1693 408.1706,430.778 411.53,430.778"/>
    <polygon points="419.1078,430.778 416.74,443.1693 413.6299,443.1693 415.0078,430.778"/>
    <polygon points="391.5978,443.1693 370.6212,443.1693 382.3478,430.778 406.2981,430.778"/>
    <polygon points="374.0347,430.778 386.7084,443.1693 374.4348,443.1693 360.5055,430.778"/>
    <polygon points="356.0585,425.778 358.0194,413.3867 347.2042,413.3867 372.3681,425.778"/>
    <polygon points="346.5694,430.778 330.7614,430.778 359.0086,443.1693 337.7544,443.1693"/>
    <polygon points="344.6946,425.778 338.8086,413.3867 345.9393,413.3867 331.3803,425.778"/>
    <polygon points="344.0518,443.1693 367.2902,443.1693 347.0665,430.778 373.3214,430.778"/>
    <polygon points="322.5064,430.778 303.1329,443.1693 315.5082,443.1693 310.7777,430.778"/>
    <polygon points="317.056,425.778 304.7691,413.3867 313.2389,413.3867 313.7162,425.778"/>
    <polygon points="313.06,413.3867 286.113,425.778 300.3369,425.778 283.4194,413.3867"/>
    <polygon points="309.3079,413.3867 313.5627,413.3867 343.6624,425.778 326.2883,425.778"/>
    <polygon points="306.0126,408.3867 323.7336,395.9954 323.5367,395.9954 325.3253,408.3867"/>
    <polygon points="291.4202,408.3867 299.3739,395.9954 283.626,395.9954 286.8694,408.3867"/>
    <polygon points="293.1539,425.778 290.2386,425.778 264.7122,413.3867 285.2316,413.3867"/>
    <polygon points="307.0678,443.1693 287.5226,443.1693 303.4427,430.778 282.1473,430.778"/>
    <polygon points="315.7734,443.1693 311.1366,430.778 328.5188,430.778 332.8305,443.1693"/>
    <polygon points="271.6879,443.1693 262.158,430.778 293.5647,430.778 280.315,443.1693"/>
    <polygon points="271.6666,443.1693 261.7058,430.778 262.4621,430.778 270.2528,443.1693"/>
    <polygon points="260.004,443.1693 229.0271,443.1693 247.2602,430.778 236.1906,430.778"/>
    <polygon points="260.1692,413.3867 282.1081,413.3867 269.4163,425.778 249.494,425.778"/>
    <polygon points="263.1472,408.3867 285.8998,395.9954 283.4409,395.9954 273.2649,408.3867"/>
    <polygon points="264.8964,395.9954 269.6052,395.9954 278.2273,408.3867 262.3984,408.3867"/>
    <polygon points="270.6951,390.9954 285.105,378.6041 266.0446,378.6041 280.9324,390.9954"/>
    <polygon points="262.3673,378.6041 274.0661,378.6041 263.1454,390.9954 257.0514,390.9954"/>
    <polygon points="251.6675,373.6041 252.5633,361.2128 261.1844,361.2128 260.6942,373.6041"/>
    <polygon points="256.9486,361.2128 269.7369,361.2128 265.1621,373.6041 248.0695,373.6041"/>
    <polygon points="265.8171,356.2128 266.6008,356.2128 272.1366,343.8215 256.4548,343.8215"/>
    <polygon points="267.7166,356.2128 282.7842,356.2128 263.458,343.8215 270.782,343.8215"/>
    <polygon points="284.4395,361.2128 285.946,361.2128 297.0442,373.6041 286.6018,373.6041"/>
    <polygon points="290.718,356.2128 299.5473,356.2128 303.3598,343.8215 281.2342,343.8215"/>
    <polygon points="290.6735,338.8215 279.5327,326.4302 296.4785,326.4302 293.1922,338.8215"/>
    <polygon points="274.943,326.4302 276.2674,338.8215 278.635,338.8215 275.9831,326.4302"/>
    <polygon points="279.2691,321.4302 266.6746,321.4302 270.0066,309.0388 281.0722,309.0388"/>
    <polygon points="285.9003,309.0388 300.8874,321.4302 279.5682,321.4302 298.6385,309.0388"/>
    <polygon points="288.7515,309.0388 270.5504,309.0388 292.757,321.4302 275.2183,321.4302"/>
    <polygon points="300.7172,304.0388 294.0421,291.6476 308.4018,291.6476 309.1442,304.0388"/>
    <polygon points="308.1255,304.0388 311.6666,304.0388 307.0642,291.6476 313.8268,291.6476"/>
    <polygon points="317.7209,321.4302 311.2489,309.0388 321.1662,321.4302"/>
    <polygon points="319.4219,321.4302 331.3028,321.4302 321.8907,309.0388 336.9831,309.0388"/>
    <polygon points="320.6026,326.4302 329.3613,326.4302 321.3364,338.8215 300.777,338.8215"/>
    <polygon points="323.8253,338.8215 322.706,326.4302 336.4438,326.4302 312.7154,338.8215"/>
    <polygon points="335.5953,338.8215 328.8297,326.4302 355.33,338.8215"/>
    <polygon points="338.0223,326.4302 348.3165,326.4302 371.9247,338.8215 349.7123,338.8215"/>
    <polygon points="341.2934,309.0388 336.592,309.0388 357.1012,321.4302 334.7719,321.4302"/>
    <polygon points="342.6939,304.0388 310.2112,304.0388 328.49,291.6476 344.9755,291.6476"/>
    <polygon points="339.069,304.0388 356.066,291.6476 349.8159,291.6476 356.9668,304.0388"/>
    <polygon points="347.6758,304.0388 320.6259,291.6476 330.7693,291.6476 351.7715,304.0388"/>
    <polygon points="357.3547,309.0388 384.6845,309.0388 388.8888,321.4302 370.165,321.4302"/>
    <polygon points="365.1769,321.4302 340.0806,309.0388 350.282,309.0388 364.8176,321.4302"/>
    <polygon points="360.3837,338.8215 356.5494,338.8215 356.7428,326.4302 368.1669,326.4302"/>
    <polygon points="349.5494,356.2128 363.8495,356.2128 341.511,343.8215 365.5082,343.8215"/>
    <polygon points="356.012,361.2128 346.4779,373.6041 360.3323,373.6041 338.1536,361.2128"/>
    <polygon points="337.5795,356.2128 341.1728,356.2128 346.5824,343.8215 342.4068,343.8215"/>
    <polygon points="326.5654,361.2128 340.8529,373.6041 312.2741,373.6041 321.6353,361.2128"/>
    <polygon points="318.1316,356.2128 335.1786,356.2128 333.179,343.8215 315.1278,343.8215"/>
    <polygon points="311.6289,343.8215 324.1251,356.2128 293.2265,356.2128 294.2208,343.8215"/>
    <polygon points="295.2769,373.6041 319.0872,361.2128 297.8391,361.2128 318.5368,373.6041"/>
    <polygon points="297.7516,378.6041 303.9108,390.9954 293.8555,390.9954 296.7409,378.6041"/>
    <polygon points="298.4499,390.9954 320.1718,378.6041 304.9489,378.6041 311.293,390.9954"/>
    <polygon points="320.9664,390.9954 332.3179,378.6041 316.1656,378.6041 320.3893,390.9954"/>
    <polygon points="323.4152,395.9954 341.1253,395.9954 329.978,408.3867 337.4536,408.3867"/>
    <polygon points="329.375,395.9954 306.6681,408.3867 312.1031,408.3867 297.6224,395.9954"/>
    <polygon points="340.226,390.9954 324.2787,378.6041 334.9268,378.6041 338.3756,390.9954"/>
    <polygon points="332.8677,373.6041 336.8215,361.2128 343.8497,361.2128 328.4591,373.6041"/>
    <polygon points="368.514,378.6041 373.3043,390.9954 365.5815,390.9954 344.7669,378.6041"/>
    <polygon points="388.5223,373.6041 377.5342,373.6041 353.2608,361.2128 382.6852,361.2128"/>
    <polygon points="394.4711,378.6041 393.3412,390.9954 404.934,390.9954 395.6985,378.6041"/>
    <polygon points="396.5416,361.2128 397.3695,361.2128 405.3436,373.6041 376.2709,373.6041"/>
    <polygon points="405.4532,356.2128 394.3201,356.2128 368.2696,343.8215 394.6618,343.8215"/>
    <polygon points="410.7149,356.2128 399.8919,343.8215 434.0768,343.8215 408.5713,356.2128"/>
    <polygon points="415.1154,361.2128 404.3902,373.6041 385.3599,373.6041 403.6389,361.2128"/>
    <polygon points="418.0046,373.6041 408.6496,361.2128 417.307,361.2128 414.6188,373.6041"/>
    <polygon points="425.9117,378.6041 406.6861,378.6041 437.1502,390.9954 418.1525,390.9954"/>
    <polygon points="429.9814,373.6041 427.1226,361.2128 437.7263,361.2128 435.8941,373.6041"/>
    <polygon points="436.5344,356.2128 453.8369,343.8215 444.9489,343.8215 440.9335,356.2128"/>
    <polygon points="399.3485,326.4302 396.7608,326.4302 382.746,338.8215 369.3898,338.8215"/>
    <polygon points="389.2609,321.4302 412.6106,309.0388 407.0813,309.0388 396.7251,321.4302"/>
    <polygon points="383.6708,309.0388 396.6139,309.0388 404.5541,321.4302 369.7472,321.4302"/>
    <polygon points="373.5029,304.0388 358.87,304.0388 353.2802,291.6476 361.4694,291.6476"/>
    <polygon points="378.1803,286.6476 386.3084,286.6476 389.8517,274.2562 377.1559,274.2562"/>
    <polygon points="372.6064,274.2562 370.2471,286.6476 382.3602,286.6476 381.21,274.2562"/>
    <polygon points="363.1031,274.2562 373.8263,274.2562 349.1374,286.6476 362.1907,286.6476"/>
    <polygon points="353.9088,256.8649 389.9602,256.8649 388.5154,269.2562 359.8286,269.2562"/>
    <polygon points="348.9624,256.8649 371.5042,269.2562 356.2355,269.2562 336.2992,256.8649"/>
    <polygon points="346.3706,256.8649 339.1427,256.8649 332.7455,269.2562 330.8793,269.2562"/>
    <polygon points="349.4974,251.8649 363.0795,251.8649 352.5046,239.4736 363.7785,239.4736"/>
    <polygon points="341.7316,239.4736 360.0811,251.8649 336.0338,251.8649"/>
    <polygon points="335.5273,234.4736 322.7638,234.4736 351.7144,222.0823 356.9485,222.0823"/>
    <polygon points="322.8348,222.0823 321.137,222.0823 344.4682,234.4736 307.5367,234.4736"/>
    <polygon points="331.6026,217.0823 340.4416,204.691 348.8902,204.691 357.5734,217.0823"/>
    <polygon points="329.208,204.691 322.1694,204.691 314.3648,217.0823 322.6718,217.0823"/>
    <polygon points="318.0103,204.691 320.3172,204.691 315.3615,217.0823 313.3575,217.0823"/>
    <polygon points="316.9594,199.691 321.4737,199.691 312.7738,187.2997 324.208,187.2997"/>
    <polygon points="306.9016,204.691 296.112,217.0823 292.0151,217.0823 287.7563,204.691"/>
    <polygon points="307.8519,187.2997 340.7242,187.2997 341.7972,199.691 333.5917,199.691"/>
    <polygon points="302.5801,182.2997 305.0978,169.9084 293.1741,169.9084 292.775,182.2997"/>
    <polygon points="293.2588,187.2997 291.1695,187.2997 306.9992,199.691 287.588,199.691"/>
    <polygon points="277.3136,187.2997 293.5839,199.691 283.9342,199.691 283.7891,187.2997"/>
    <polygon points="275.768,182.2997 270.3668,182.2997 276.6988,169.9084 294.3219,169.9084"/>
    <polygon points="271.9472,164.9084 265.6909,152.5171 280.1865,152.5171 271.3653,164.9084"/>
    <polygon points="259.2504,169.9084 258.8065,169.9084 260.8414,182.2997 246.8258,182.2997"/>
    <polygon points="241.7268,169.9084 251.2348,182.2997 242.43,182.2997 255.5961,169.9084"/>
    <polygon points="241.81,187.2997 239.1305,187.2997 256.3393,199.691 237.4541,199.691"/>
    <polygon points="249.8053,187.2997 262.3554,199.691 243.6473,199.691 263.6523,187.2997"/>
    <polygon points="253.9543,204.691 238.3707,217.0823 258.7137,217.0823 257.6427,204.691"/>
    <polygon points="258.5025,222.0823 252.7774,222.0823 267.5068,234.4736 269.637,234.4736"/>
    <polygon points="248.884,234.4736 247.4903,222.0823 255.1461,222.0823 263.4255,234.4736"/>
    <polygon points="250.4207,239.4736 256.2707,239.4736 236.6751,251.8649 241.22,251.8649"/>
    <polygon points="237.4,239.4736 245.1042,239.4736 224.6649,251.8649 235.2401,251.8649"/>
    <polygon points="243.6991,256.8649 251.8578,256.8649 265.1324,269.2562 242.7776,269.2562"/>
    <polygon points="243.8607,274.2562 220.4195,286.6476 242.0634,286.6476 232.0139,274.2562"/>
    <polygon points="254.8856,274.2562 235.3275,274.2562 261.8242,286.6476 233.8239,286.6476"/>
    <polygon points="265.2158,274.2562 274.784,274.2562 270.0836,286.6476 252.0717,286.6476"/>
    <polygon points="278.9324,274.2562 293.4328,274.2562 271.6653,286.6476 278.3795,286.6476"/>
    <polygon points="284.1852,274.2562 299.2714,274.2562 302.9818,286.6476 286.401,286.6476"/>
    <polygon points="295.6658,269.2562 290.3721,256.8649 297.6721,256.8649 313.9909,269.2562"/>
    <polygon points="285.7913,256.8649 308.1781,269.2562 285.8339,269.2562 277.0645,256.8649"/>
    <polygon points="281.8398,256.8649 268.8313,256.8649 278.6801,269.2562 275.6879,269.2562"/>
    <polygon points="283.9758,251.8649 273.1446,251.8649 286.7215,239.4736 268.1889,239.4736"/>
    <polygon points="270.8573,256.8649 252.7246,256.8649 263.5927,269.2562 269.7706,269.2562"/>
    <polygon points="266.2758,239.4736 260.9573,251.8649 256.6756,251.8649 255.7003,239.4736"/>
    <polygon points="276.7789,217.0823 255.8036,217.0823 259.443,204.691 251.251,204.691"/>
    <polygon points="286.4457,222.0823 267.0296,234.4736 263.7255,234.4736 279.7132,222.0823"/>
    <polygon points="291.8745,234.4736 273.5402,222.0823 310.2481,222.0823 311.8158,234.4736"/>
    <polygon points="298.4519,251.8649 309.4872,239.4736 303.9586,239.4736 319.8973,251.8649"/>
    <polygon points="312.4685,251.8649 276.613,251.8649 303.7846,239.4736 312.6681,239.4736"/>
    <polygon points="328.0132,256.8649 341.5255,269.2562 317.7361,269.2562 330.4366,256.8649"/>
    <polygon points="331.0506,251.8649 336.6515,251.8649 317.8759,239.4736 321.888,239.4736"/>
    <polygon points="327.9466,274.2562 334.2491,286.6476 351.7643,286.6476 331.6476,274.2562"/>
    <polygon points="341.5521,274.2562 327.8996,286.6476 321.6039,286.6476 321.1436,274.2562"/>
    <polygon points="378.5465,251.8649 374.6875,239.4736 384.7635,239.4736 375.5154,251.8649"/>
    <polygon points="384.2369,256.8649 400.6928,269.2562 379.3176,269.2562 377.8021,256.8649"/>
    <polygon points="391.6039,251.8649 369.6851,239.4736 405.1959,239.4736 383.5826,251.8649"/>
    <polygon points="402.0168,239.4736 417.0338,239.4736 412.7272,251.8649 388.342,251.8649"/>
    <polygon points="411.5823,251.8649 403.6701,251.8649 407.0457,239.4736 433.7889,239.4736"/>
    <polygon points="423.2335,234.4736 401.7022,234.4736 414.7273,222.0823 421.1857,222.0823"/>
    <polygon points="423.4872,234.4736 438.2639,234.4736 441.8463,222.0823 451.4192,222.0823"/>
    <polygon points="414.6116,222.0823 431.9372,222.0823 428.0181,234.4736 425.6374,234.4736"/>
    <polygon points="401.4923,217.0823 397.0022,217.0823 393.554,204.691 400.5949,204.691"/>
    <polygon points="403.73,204.691 421.0788,204.691 418.5787,217.0823 404.8987,217.0823"/>
    <polygon points="405.811,199.691 427.9835,187.2997 437.4054,187.2997 425.2518,199.691"/>
    <polygon points="397.1747,199.691 394.3953,199.691 401.7403,187.2997 418.7648,187.2997"/>
    <polygon points="396.5496,204.691 384.822,204.691 382.3939,217.0823"/>
    <polygon points="388.1369,222.0823 399.3628,234.4736 395.4718,234.4736 374.9825,222.0823"/>
    <polygon points="386.5835,222.0823 379.6909,234.4736 380.5672,234.4736 369.2869,222.0823"/>
    <polygon points="369.2229,222.0823 352.903,234.4736 354.2561,234.4736 347.3998,222.0823"/>
    <polygon points="362.6206,199.691 372.3624,199.691 355.5728,187.2997 382.2402,187.2997"/>
    <polygon points="352.1818,204.691 375.9099,204.691 380.7622,217.0823 365.1794,217.0823"/>
    <polygon points="352.1538,204.691 351.1581,204.691 371.7825,217.0823 344.4415,217.0823"/>
    <polygon points="339.5594,199.691 345.7677,187.2997 360.4431,187.2997 365.3768,199.691"/>
    <polygon points="340.0625,187.2997 346.0966,187.2997 352.9559,199.691 326.9559,199.691"/>
    <polygon points="335.0873,169.9084 313.4923,182.2997 324.9155,182.2997 330.722,169.9084"/>
    <polygon points="323.2849,164.9084 325.1592,152.5171 334.9962,152.5171 344.0378,164.9084"/>
    <polygon points="310.5887,169.9084 321.4844,169.9084 328.9314,182.2997 315.1012,182.2997"/>
    <polygon points="310.2742,152.5171 313.6324,164.9084 292.9211,164.9084 294.7271,152.5171"/>
    <polygon points="305.9266,152.5171 305.8557,164.9084 310.7299,164.9084 295.4083,152.5171"/>
    <polygon points="305.91,135.1258 307.886,147.5171 294.8351,147.5171 292.8229,135.1258"/>
    <polygon points="298.0273,130.1258 280.648,117.7345 298.3665,117.7345"/>
    <polygon points="281.9008,135.1258 289.0896,147.5171 291.5035,147.5171 287.3719,135.1258"/>
    <polygon points="280.3911,117.7345 273.0936,130.1258 245.5114,130.1258 268.3402,117.7345"/>
    <polygon points="275.0756,117.7345 294.9788,117.7345 283.1962,130.1258 262.1693,130.1258"/>
    <polygon points="285.0703,112.7345 284.385,112.7345 267.1546,100.3432 266.1267,100.3432"/>
    <polygon points="285.2106,100.3432 293.294,112.7345 292.659,112.7345 284.2958,100.3432"/>
    <polygon points="286.5115,95.3432 262.9466,95.3432 277.8317,82.9519 293.8777,82.9519"/>
    <polygon points="298.7249,95.3432 276.0865,95.3432 275.6567,82.9519 283.6609,82.9519"/>
    <polygon points="307.7086,82.9519 299.0999,95.3432 309.8924,95.3432 319.6976,82.9519"/>
    <polygon points="316.1017,77.9519 291.7611,65.5606 328.2837,65.5606 320.4758,77.9519"/>
    <polygon points="321.1369,82.9519 348.9643,82.9519 350.6457,95.3432 323.3035,95.3432"/>
    <polygon points="322.4497,100.3432 313.8442,112.7345 332.1992,112.7345 313.5153,100.3432"/>
    <polygon points="311.5562,112.7345 301.5012,100.3432 301.7184,100.3432 297.6357,112.7345"/>
    <polygon points="323.9794,117.7345 333.0913,117.7345 328.2646,130.1258 304.5905,130.1258 317.7803,117.7345 306.4301,117.7345 328.2328,130.1258 323.312,130.1258"/>
    <polygon points="332.2498,135.1258 332.8231,135.1258 327.4732,147.5171 330.5118,147.5171"/>
    <polygon points="341.6264,135.1258 329.0775,147.5171 335.8884,147.5171 350.7896,135.1258"/>
    <polygon points="351.8447,130.1258 331.5112,130.1258 338.3371,117.7345 356.8351,117.7345"/>
    <polygon points="354.293,130.1258 342.7603,117.7345 344.0723,117.7345"/>
    <polygon points="362.2979,135.1258 371.9468,135.1258 345.9279,147.5171 348.2455,147.5171"/>
    <polygon points="357.8456,152.5171 348.3939,164.9084 355.8098,164.9084 341.1922,152.5171"/>
    <polygon points="349.7487,169.9084 356.7673,182.2997 347.6472,182.2997 329.8956,169.9084"/>
    <polygon points="367.8876,169.9084 387.811,169.9084 368.9376,182.2997 352.6441,182.2997"/>
    <polygon points="378.2573,164.9084 365.1009,164.9084 383.8554,152.5171 372.9004,152.5171"/>
    <polygon points="380.8969,182.2997 393.0991,169.9084 378.673,169.9084 394.6268,182.2997"/>
    <polygon points="378.076,187.2997 401.5235,187.2997 377.5594,199.691 399.3631,199.691"/>
    <polygon points="363.8684,182.2997 367.8145,169.9084 361.4654,169.9084 361.4308,182.2997"/>
    <polygon points="386.5292,147.5171 371.0474,147.5171 357.6926,135.1258 388.8069,135.1258"/>
    <polygon points="392.3136,147.5171 395.5494,135.1258 406.7397,135.1258 418.8589,147.5171"/>
    <polygon points="392.5425,135.1258 407.74,135.1258 376.1909,147.5171 372.5831,147.5171"/>
    <polygon points="405.6916,135.1258 439.1765,135.1258 416.0281,147.5171 424.9654,147.5171"/>
    <polygon points="412.5873,130.1258 405.4916,117.7345 403.7534,117.7345 414.7391,130.1258"/>
    <polygon points="419.5176,117.7345 439.118,130.1258 398.8595,130.1258 405.2069,117.7345"/>
    <polygon points="418.9241,112.7345 404.9077,112.7345 397.9783,100.3432 418.1562,100.3432"/>
    <polygon points="415.4849,112.7345 399.1595,100.3432 431.1944,100.3432 438.098,112.7345"/>
    <polygon points="399.3046,112.7345 397.682,112.7345 399.8008,100.3432 378.5584,100.3432"/>
    <polygon points="377.3148,117.7345 384.364,130.1258 381.167,130.1258 377.6904,117.7345"/>
    <polygon points="383.0903,95.3432 378.1512,82.9519 377.8427,82.9519 375.1198,95.3432"/>
    <polygon points="383.3518,77.9519 353.5383,65.5606 376.4735,65.5606"/>
    <polygon points="385.9743,77.9519 370.3117,77.9519 373.4662,65.5606 397.0413,65.5606"/>
    <polygon points="396.2667,82.9519 417.9565,95.3432 398.7885,95.3432 397.8691,82.9519"/>
    <polygon points="397.2179,82.9519 385.7389,95.3432 393.3161,95.3432 389.764,82.9519"/>
    <polygon points="405.6715,60.5606 377.098,60.5606 397.1789,48.1693 397.9623,48.1693"/>
    <polygon points="409.6208,60.5606 405.338,48.1693 419.5842,48.1693 408.3357,60.5606"/>
    <polygon points="420.9328,65.5606 431.4251,65.5606 419.271,77.9519 398.9068,77.9519 409.2918,65.5606 399.0699,65.5606 419.2566,77.9519 430.0863,77.9519"/>
    <polygon points="422.4704,65.5606 450.3933,65.5606 446.5158,77.9519 436.9517,77.9519"/>
    <polygon points="423.0335,60.5606 424.4565,60.5606 438.5158,48.1693"/>
    <polygon points="426.0908,48.1693 425.6326,60.5606 419.9397,60.5606 408.4369,48.1693"/>
    <polygon points="457.4313,60.5606 453.3584,48.1693 442.4811,48.1693 463.6664,60.5606"/>
    <polygon points="465.4961,65.5606 477.4404,65.5606 466.6561,77.9519 451.0888,77.9519"/>
    <polygon points="473.5052,77.9519 476.789,77.9519 487.1167,65.5606 491.947,65.5606"/>
    <polygon points="478.3447,82.9519 479.6824,95.3432 494.0757,95.3432 490.8149,82.9519"/>
    <polygon points="486.5037,95.3432 503.7143,82.9519 492.7307,82.9519 505.578,95.3432"/>
    <polygon points="495.0627,100.3432 486.5699,112.7345 488.6687,112.7345 478.4311,100.3432"/>
    <polygon points="502.0857,77.9519 493.4792,77.9519 502.9648,65.5606 487.277,65.5606"/>
    <polygon points="510.7094,77.9519 532.818,65.5606 524.547,65.5606 536.599,77.9519"/>
    <polygon points="512.6533,82.9519 533.1996,95.3432 519.4427,95.3432"/>
    <polygon points="522.3344,77.9519 517.894,77.9519 513.9861,65.5606 523.9574,65.5606"/>
    <polygon points="533.8138,65.5606 549.6795,65.5606 539.261,77.9519 539.8977,77.9519"/>
    <polygon points="520.5416,60.5606 523.0009,60.5606 501.5394,48.1693 529.4811,48.1693"/>
    <polygon points="536.4655,48.1693 538.446,60.5606 516.3812,60.5606 521.9591,48.1693"/>
    <polygon points="548.5184,60.5606 545.9828,48.1693 540.5878,48.1693 539.0222,60.5606"/>
    <polygon points="564.2227,48.1693 586.8342,60.5606 562.8095,60.5606 573.5678,48.1693"/>
    <polygon points="571.8746,60.5606 540.7951,48.1693 572.1552,48.1693 562.4874,60.5606"/>
    <polygon points="572.37,77.9519 543.1479,65.5606 553.9692,65.5606 577.9463,77.9519"/>
    <polygon points="573.6991,82.9519 583.2977,82.9519 593.3534,95.3432 557.379,95.3432"/>
    <polygon points="576.4324,82.9519 602.2067,82.9519 595.2968,95.3432 600.3554,95.3432"/>
    <polygon points="581.6458,77.9519 556.6459,65.5606 589.9681,65.5606 564.8138,77.9519"/>
    <polygon points="603.199,65.5606 601.7239,65.5606 598.4926,77.9519 587.6454,77.9519"/>
    <polygon points="607.0465,65.5606 614.5985,65.5606 613.4058,77.9519 629.2659,77.9519"/>
    <polygon points="610.6454,65.5606 611.1711,77.9519 574.1843,77.9519 589.4233,65.5606"/>
    <polygon points="616.04,60.5606 633.5908,60.5606 631.7964,48.1693 615.2059,48.1693"/>
    <polygon points="604.4215,60.5606 595.8097,60.5606 587.3423,48.1693 605.2771,48.1693"/>
    <polygon points="601.3117,60.5606 606.1435,60.5606 608.1406,48.1693 613.7929,48.1693"/>
    <polygon points="636.9602,65.5606 651.5122,65.5606 659.4993,77.9519 662.3862,77.9519"/>
    <polygon points="638.3187,60.5606 649.9119,60.5606 631.1322,48.1693 650.2985,48.1693"/>
    <polygon points="640.3476,77.9519 642.8147,77.9519 618.263,65.5606 630.8719,65.5606"/>
    <polygon points="657.7615,82.9519 643.0722,95.3432 640.3179,95.3432 646.6593,82.9519"/>
    <polygon points="654.8564,95.3432 650.8896,82.9519 666.5951,82.9519 681.7342,95.3432"/>
    <polygon points="654.3278,95.3432 636.0788,95.3432 658.588,82.9519 672.9465,82.9519"/>
    <polygon points="665.0083,112.7345 658.6509,112.7345 633.8197,100.3432 667.3889,100.3432"/>
    <polygon points="675.17,100.3432 664.6053,112.7345 661.7431,112.7345 681.0503,100.3432"/>
    <polygon points="684.2419,112.7345 668.5077,112.7345 671.0159,100.3432 697.281,100.3432"/>
    <polygon points="681.079,117.7345 662.6591,130.1258 650.3968,130.1258 679.5267,117.7345"/>
    <polygon points="686.1234,130.1258 682.6155,117.7345 680.1716,117.7345 674.0848,130.1258"/>
    <polygon points="682.2553,135.1258 688.4769,147.5171 652.0313,147.5171 651.862,135.1258"/>
    <polygon points="674.6081,135.1258 683.3703,147.5171 666.0576,147.5171 671.6795,135.1258"/>
    <polygon points="673.5382,147.5171 663.5338,147.5171 649.2084,135.1258 668.4994,135.1258"/>
    <polygon points="659.7694,152.5171 662.4319,152.5171 663.2994,164.9084 675.2111,164.9084"/>
    <polygon points="655.7845,164.9084 627.1016,164.9084 618.2303,152.5171 656.1086,152.5171"/>
    <polygon points="669.3714,164.9084 676.283,152.5171 695.221,152.5171 704.8946,164.9084"/>
    <polygon points="687.2907,169.9084 664.1642,182.2997 665.616,182.2997 651.4561,169.9084"/>
    <polygon points="697.5394,164.9084 708.1994,164.9084 696.1197,152.5171 706.5055,152.5171"/>
    <polygon points="695.4554,147.5171 713.1767,147.5171 689.6168,135.1258 688.8795,135.1258"/>
    <polygon points="710.3045,117.7345 705.359,117.7345 713.9157,130.1258 693.7,130.1258"/>
    <polygon points="712.7643,100.3432 704.7057,100.3432 701.593,112.7345 706.8131,112.7345"/>
    <polygon points="710.0264,95.3432 703.9967,82.9519 693.55,82.9519 718.0023,95.3432"/>
    <polygon points="701.8031,95.3432 692.0418,95.3432 695.3775,82.9519 678.0462,82.9519"/>
    <polygon points="676.5298,77.9519 689.7043,77.9519 696.2227,65.5606 693.5207,65.5606"/>
    <polygon points="680.8761,65.5606 718.0204,65.5606 718.9845,77.9519 682.136,77.9519"/>
    <polygon points="685.677,65.5606 670.9206,77.9519 662.4391,77.9519 664.9363,65.5606"/>
    <polygon points="676.9636,60.5606 684.9979,48.1693 680.5837,48.1693 703.4428,60.5606"/>
    <polygon points="678.29,48.1693 669.803,60.5606 657.7978,60.5606 649.4454,48.1693"/>
    <polygon points="654.4306,48.1693 659.2167,48.1693 643.5647,60.5606 657.8232,60.5606"/>
    <polygon points="716.2191,48.1693 720.5813,60.5606 699.6355,60.5606 704.1911,48.1693"/>
    <polygon points="661.4766,130.1258 657.6909,117.7345 652.8461,117.7345 652.3478,130.1258"/>
    <polygon points="656.0181,182.2997 649.3273,169.9084 664.9186,169.9084 653.7099,182.2997"/>
    <polygon points="665.1026,199.691 633.9847,199.691 659.6776,187.2997 658.9447,187.2997"/>
    <polygon points="655.1813,204.691 641.5877,217.0823 629.7935,217.0823 622.7379,204.691"/>
    <polygon points="665.0788,217.0823 660.6742,204.691 672.5425,204.691 661.5275,217.0823"/>
    <polygon points="665.5401,222.0823 680.2333,222.0823 675.7484,234.4736 674.6041,234.4736"/>
    <polygon points="669.6529,239.4736 682.1283,251.8649 666.4112,251.8649 680.4198,239.4736"/>
    <polygon points="690.3733,234.4736 709.5522,222.0823 702.1513,222.0823 696.0765,234.4736"/>
    <polygon points="692.214,234.4736 676.6961,222.0823 680.3662,222.0823 685.7062,234.4736"/>
    <polygon points="694.1473,239.4736 687.7576,239.4736 705.0995,251.8649 688.5009,251.8649"/>
    <polygon points="713.1606,251.8649 708.331,251.8649 703.6989,239.4736 707.4487,239.4736"/>
    <polygon points="705.4234,217.0823 689.7683,217.0823 701.5468,204.691 692.1088,204.691"/>
    <polygon points="709.18,199.691 702.4371,199.691 690.1981,187.2997 692.241,187.2997"/>
    <polygon points="705.7828,182.2997 690.8099,169.9084 695.3911,169.9084 692.7435,182.2997"/>
    <polygon points="693.1973,182.2997 694.1589,182.2997 669.9532,169.9084 704.3864,169.9084"/>
    <polygon points="688.2344,187.2997 683.8164,199.691 650.2509,199.691 655.301,187.2997"/>
    <polygon points="686.5638,199.691 693.5682,199.691 673.5654,187.2997 673.98,187.2997"/>
    <polygon points="685.1531,217.0823 689.2576,204.691 682.1079,204.691 679.4471,217.0823"/>
    <polygon points="644.2056,234.4736 663.3218,222.0823 661.7013,222.0823 645.6515,234.4736"/>
    <polygon points="638.4614,234.4736 650.6007,234.4736 629.3457,222.0823 654.581,222.0823"/>
    <polygon points="639.9947,239.4736 654.5787,239.4736 650.2207,251.8649 655.0981,251.8649 644.1989,239.4736 647.5859,239.4736 650.2316,251.8649 630.8297,251.8649"/>
    <polygon points="637.6532,217.0823 648.3678,204.691 667.1468,204.691 656.2588,217.0823"/>
    <polygon points="628.4751,217.0823 621.7426,204.691 613.2822,204.691 640.5412,217.0823"/>
    <polygon points="633.649,199.691 607.8706,199.691 608.0088,187.2997 639.1499,187.2997"/>
    <polygon points="634.1022,199.691 630.2492,199.691 640.5748,187.2997 651.8702,187.2997"/>
    <polygon points="609.7429,222.0823 620.2455,222.0823 632.199,234.4736 633.4637,234.4736"/>
    <polygon points="588.505,256.8649 588.2138,256.8649 585.1509,269.2562 593.7051,269.2562"/>
    <polygon points="580.7092,274.2562 564.1505,286.6476 560.0835,286.6476 561.5575,274.2562"/>
    <polygon points="570.2107,269.2562 579.4698,269.2562 560.4263,256.8649 593.8072,256.8649"/>
    <polygon points="565.976,269.2562 570.3027,269.2562 566.8847,256.8649"/>
    <polygon points="568.7429,286.6476 556.9493,274.2562 559.1854,274.2562 566.4254,286.6476"/>
    <polygon points="571.0327,304.0388 574.458,291.6476 567.9632,291.6476 586.1174,304.0388"/>
    <polygon points="571.3168,304.0388 549.9207,291.6476 550.4681,291.6476 564.0233,304.0388"/>
    <polygon points="579.2579,309.0388 564.9252,321.4302 585.1774,321.4302 555.6069,309.0388"/>
    <polygon points="580.7974,321.4302 575.8843,321.4302 572.9524,309.0388 597.8668,309.0388"/>
    <polygon points="561.286,321.4302 551.9086,321.4302 555.033,309.0388 570.816,309.0388"/>
    <polygon points="556.7626,309.0388 540.084,309.0388 539.0085,321.4302 542.5933,321.4302"/>
    <polygon points="549.0013,304.0388 528.7006,291.6476 540.2386,291.6476 531.9454,304.0388"/>
    <polygon points="552.0492,356.2128 550.1227,356.2128 570.7818,343.8215 557.8595,343.8215"/>
    <polygon points="551.8762,361.2128 555.4944,361.2128 550.1563,373.6041 546.0971,373.6041"/>
    <polygon points="557.8497,356.2128 546.1718,356.2128 544.5069,343.8215 535.4122,343.8215"/>
    <polygon points="553.2661,373.6041 549.6929,361.2128 559.011,361.2128 548.8466,373.6041"/>
    <polygon points="550.7571,378.6041 537.7248,390.9954 550.5753,390.9954 535.5369,378.6041"/>
    <polygon points="555.2677,395.9954 575.8642,408.3867 564.0177,408.3867 558.692,395.9954"/>
    <polygon points="572.9492,408.3867 563.4166,408.3867 565.8512,395.9954 593.9361,395.9954"/>
    <polygon points="631.5746,269.2562 628.5998,269.2562 620.5898,256.8649 645.948,256.8649"/>
    <polygon points="648.799,274.2562 647.5634,274.2562 654.5688,286.6476 638.4348,286.6476"/>
    <polygon points="658.6476,274.2562 672.3155,286.6476 639.9227,286.6476 633.9394,274.2562"/>
    <polygon points="661.4639,269.2562 635.266,256.8649 660.4673,256.8649 652.2481,269.2562"/>
    <polygon points="531.9285,199.691 533.6865,199.691 542.0588,187.2997 554.4794,187.2997"/>
    <polygon points="525.5037,199.691 534.2945,199.691 514.1755,187.2997 543.115,187.2997"/>
    <polygon points="524.9161,204.691 531.9302,217.0823 539.0472,217.0823 511.017,204.691"/>
    <polygon points="518.7214,199.691 502.0217,199.691 523.0268,187.2997 501.2992,187.2997"/>
    <polygon points="515.1979,204.691 516.5181,217.0823 493.7748,204.691"/>
    <polygon points="493.5263,204.691 501.7797,217.0823 507.9014,217.0823 488.2071,204.691"/>
    <polygon points="457.2115,182.2997 451.8471,182.2997 445.2871,169.9084 442.326,169.9084"/>
    <polygon points="452.9409,187.2997 469.844,187.2997 461.7732,199.691 442.0,199.691"/>
    <polygon points="443.1476,204.691 444.4345,217.0823 428.8908,217.0823 423.4401,204.691"/>
    <polygon points="429.2864,187.2997 443.0868,187.2997 424.0566,199.691 418.5795,199.691"/>
    <polygon points="422.1867,169.9084 433.3187,182.2997 430.4604,182.2997 403.2526,169.9084"/>
    <polygon points="420.3974,164.9084 445.999,152.5171 425.8512,152.5171 441.696,164.9084"/>
    <polygon points="415.8174,164.9084 400.291,164.9084 398.5726,152.5171 405.2128,152.5171"/>
    <polygon points="403.8299,169.9084 402.6551,182.2997 386.4449,182.2997 412.3561,169.9084"/>
    <polygon points="402.2715,164.9084 369.0535,164.9084 394.37,152.5171 401.6657,152.5171"/>
    <polygon points="416.3285,147.5171 442.9283,135.1258 454.3679,135.1258 446.006,147.5171"/>
    <polygon points="425.2692,152.5171 415.3513,164.9084 402.3951,164.9084 418.3701,152.5171"/>
    <polygon points="437.1622,164.9084 433.3085,152.5171 459.2405,152.5171 466.8358,164.9084"/>
    <polygon points="440.5772,169.9084 454.3637,182.2997 442.0342,182.2997 424.8177,169.9084"/>
    <polygon points="438.9749,117.7345 444.6532,130.1258 446.2921,130.1258 445.4357,117.7345"/>
    <polygon points="434.0669,117.7345 468.4939,117.7345 458.7286,130.1258 444.8299,130.1258"/>
    <polygon points="427.6908,100.3432 445.7984,100.3432 438.5319,112.7345 415.7356,112.7345"/>
    <polygon points="434.667,82.9519 459.7178,82.9519 440.7832,95.3432 450.1336,95.3432"/>
    <polygon points="438.9617,82.9519 406.5484,95.3432 428.3298,95.3432 416.3681,82.9519"/>
    <polygon points="442.0562,77.9519 457.2577,77.9519 447.2133,65.5606 454.3333,65.5606"/>
    <polygon points="457.3512,82.9519 479.4324,82.9519 462.1558,95.3432 467.9847,95.3432"/>
    <polygon points="446.9458,95.3432 445.9802,82.9519 423.5269,82.9519 429.4147,95.3432"/>
    <polygon points="457.343,100.3432 440.3275,100.3432 445.1747,112.7345 450.0284,112.7345"/>
    <polygon points="475.6651,48.1693 472.6263,48.1693 471.455,60.5606 470.2553,60.5606"/>
    <polygon points="484.4991,48.1693 475.6271,60.5606 454.3572,60.5606 455.2074,48.1693"/>
    <polygon points="494.6964,48.1693 514.1971,60.5606 504.2418,60.5606 502.3078,48.1693"/>
    <polygon points="571.3837,117.7345 577.9236,117.7345 566.8265,130.1258 561.1067,130.1258"/>
    <polygon points="569.3789,147.5171 559.1479,135.1258 568.8916,135.1258 593.6463,147.5171"/>
    <polygon points="563.2517,152.5171 564.2352,164.9084 556.8492,164.9084 559.896,152.5171"/>
    <polygon points="431.1574,269.2562 404.5371,269.2562 422.5553,256.8649 418.0486,256.8649"/>
    <polygon points="422.1355,274.2562 403.1901,286.6476 385.0301,286.6476 391.2514,274.2562"/>
    <polygon points="415.3602,274.2562 424.0041,286.6476 427.7692,286.6476 399.3758,274.2562"/>
    <polygon points="397.9335,269.2562 384.6136,256.8649 409.872,256.8649 420.133,269.2562"/>
    <polygon points="397.9248,291.6476 407.8561,291.6476 404.8645,304.0388 374.2704,304.0388"/>
    <polygon points="401.3984,291.6476 406.5504,291.6476 401.842,304.0388 414.0509,304.0388"/>
    <polygon points="386.1132,343.8215 395.2821,343.8215 392.4987,356.2128 391.6977,356.2128"/>
    <polygon points="385.9847,356.2128 357.4496,356.2128 364.9921,343.8215 387.165,343.8215"/>
    <polygon points="273.1879,373.6041 294.1182,361.2128 309.7399,361.2128 284.5457,373.6041"/>
    <polygon points="244.4896,361.2128 239.0508,373.6041 242.5345,373.6041 234.073,361.2128"/>
    <polygon points="229.1663,356.2128 231.7631,343.8215 249.5839,343.8215 243.6297,356.2128"/>
    <polygon points="226.0819,356.2128 194.7792,356.2128 209.1781,343.8215"/>
    <polygon points="228.3654,361.2128 211.8624,373.6041 198.0716,373.6041 220.3085,361.2128"/>
    <polygon points="217.7536,356.2128 223.1847,343.8215 236.1526,343.8215 243.8837,356.2128"/>
    <polygon points="208.4054,356.2128 196.9841,343.8215 192.1654,343.8215 202.1136,356.2128"/>
    <polygon points="208.0142,361.2128 204.835,373.6041 197.6561,373.6041 211.3786,361.2128"/>
    <polygon points="197.9344,343.8215 200.8914,356.2128 179.9646,356.2128 177.9861,343.8215"/>
    <polygon points="194.665,338.8215 187.6658,326.4302 204.5752,326.4302 197.896,338.8215"/>
    <polygon points="207.2066,338.8215 202.239,326.4302 218.7211,326.4302 229.6185,338.8215"/>
    <polygon points="219.6259,338.8215 242.1566,338.8215 217.4838,326.4302 223.6439,326.4302"/>
    <polygon points="202.2623,326.4302 195.7329,338.8215 178.6671,338.8215 189.7277,326.4302"/>
    <polygon points="194.1552,321.4302 206.8002,321.4302 191.8364,309.0388 215.0833,309.0388"/>
    <polygon points="186.0108,321.4302 187.7948,309.0388 195.4442,309.0388 191.113,321.4302"/>
    <polygon points="176.0421,309.0388 176.3311,321.4302 154.1178,321.4302 177.2429,309.0388"/>
    <polygon points="170.0653,304.0388 171.0691,291.6476 173.6878,291.6476 197.5896,304.0388"/>
    <polygon points="164.5951,309.0388 143.2783,309.0388 167.2501,321.4302 138.1928,321.4302"/>
    <polygon points="154.634,304.0388 155.2361,291.6476 184.2425,291.6476 175.1655,304.0388"/>
    <polygon points="150.8552,304.0388 136.9447,291.6476 140.1541,291.6476 159.2408,304.0388"/>
    <polygon points="144.7229,309.0388 134.2133,321.4302 133.9716,321.4302 126.1576,309.0388"/>
    <polygon points="138.0142,304.0388 131.414,291.6476 153.679,291.6476 134.4163,304.0388"/>
    <polygon points="129.0301,291.6476 118.1471,291.6476 123.8263,304.0388 124.6073,304.0388"/>
    <polygon points="124.5006,291.6476 108.9762,304.0388 91.927,304.0388 103.5626,291.6476"/>
    <polygon points="119.0766,286.6476 124.8557,286.6476 130.6529,274.2562 117.8637,274.2562"/>
    <polygon points="113.5583,286.6476 86.9291,286.6476 115.7291,274.2562 115.3935,274.2562"/>
    <polygon points="123.8964,269.2562 93.4448,269.2562 89.3786,256.8649 93.4995,256.8649"/>
    <polygon points="129.5965,269.2562 122.1867,269.2562 132.2517,256.8649 147.6903,256.8649"/>
    <polygon points="121.4477,256.8649 111.5227,269.2562 110.1629,269.2562 113.8492,256.8649"/>
    <polygon points="136.013,251.8649 137.1338,239.4736 154.7885,239.4736 126.3687,251.8649"/>
    <polygon points="137.5476,234.4736 151.9292,222.0823 147.2356,222.0823 143.5771,234.4736"/>
    <polygon points="148.8536,234.4736 160.8165,222.0823 160.5804,222.0823 173.1164,234.4736"/>
    <polygon points="151.7573,234.4736 123.2343,234.4736 126.7431,222.0823 128.9693,222.0823"/>
    <polygon points="150.2348,239.4736 154.9821,239.4736 144.3784,251.8649 144.796,251.8649"/>
    <polygon points="172.0014,239.4736 170.3079,239.4736 179.3067,251.8649 150.4164,251.8649"/>
    <polygon points="172.3742,251.8649 176.4757,251.8649 165.2205,239.4736 197.9854,239.4736"/>
    <polygon points="168.5149,256.8649 146.3317,269.2562 144.5204,269.2562 163.5213,256.8649"/>
    <polygon points="181.4279,256.8649 188.0872,256.8649 176.9693,269.2562 171.2158,269.2562"/>
    <polygon points="190.119,256.8649 195.0457,269.2562 189.6395,269.2562 184.2637,256.8649"/>
    <polygon points="181.3376,269.2562 157.4071,269.2562 152.2288,256.8649 170.1189,256.8649"/>
    <polygon points="179.7345,274.2562 183.7707,274.2562 188.7134,286.6476 183.1936,286.6476"/>
    <polygon points="169.1126,274.2562 173.3551,274.2562 165.0044,286.6476 155.7083,286.6476"/>
    <polygon points="160.2518,286.6476 160.0351,274.2562 145.1536,274.2562 168.4025,286.6476"/>
    <polygon points="143.6212,286.6476 130.9758,286.6476 141.9618,274.2562 154.2117,274.2562"/>
    <polygon points="123.5005,321.4302 128.857,309.0388 122.1854,309.0388 115.0906,321.4302 115.7851,321.4302 88.2016,309.0388 109.8653,309.0388 115.1184,321.4302"/>
    <polygon points="121.475,338.8215 127.8468,326.4302 153.9464,326.4302 141.687,338.8215"/>
    <polygon points="111.0014,338.8215 88.5766,326.4302 100.7061,326.4302 113.6338,338.8215"/>
    <polygon points="102.4945,343.8215 78.9263,356.2128 92.4431,356.2128 101.364,343.8215"/>
    <polygon points="93.5934,356.2128 117.6956,356.2128 94.2934,343.8215 115.3747,343.8215"/>
    <polygon points="93.6839,361.2128 106.1558,361.2128 93.8482,373.6041 95.2426,373.6041"/>
    <polygon points="104.2779,361.2128 114.2857,373.6041 88.7274,373.6041 90.9583,361.2128"/>
    <polygon points="96.7647,378.6041 78.5248,390.9954 78.9237,390.9954 82.5469,378.6041"/>
    <polygon points="90.453,378.6041 62.9838,390.9954 75.645,390.9954 64.5653,378.6041"/>
    <polygon points="90.3102,395.9954 65.1278,408.3867 73.6944,395.9954"/>
    <polygon points="79.895,408.3867 93.9414,408.3867 79.7587,395.9954 77.5617,395.9954"/>
    <polygon points="81.8922,425.778 68.4141,413.3867 88.9493,413.3867 63.2304,425.778"/>
    <polygon points="88.3132,430.778 112.4823,430.778 119.4822,443.1693 88.112,443.1693"/>
    <polygon points="94.942,443.1693 80.1424,430.778 91.8409,430.778 84.4166,443.1693"/>
    <polygon points="76.2182,443.1693 57.3502,443.1693 63.221,430.778 88.479,430.778"/>
    <polygon points="101.0573,413.3867 110.1865,425.778 91.5669,425.778 88.8463,413.3867"/>
    <polygon points="101.1446,413.3867 84.5205,425.778 70.0175,425.778 99.7347,413.3867"/>
    <polygon points="116.3281,408.3867 109.4434,408.3867 112.8015,395.9954 106.0089,395.9954"/>
    <polygon points="123.9178,413.3867 128.2623,413.3867 121.775,425.778 123.1942,425.778"/>
    <polygon points="130.4511,425.778 116.2326,413.3867 146.3723,413.3867 126.9225,425.778"/>
    <polygon points="131.5991,430.778 151.7119,443.1693 135.0972,443.1693 138.9054,430.778"/>
    <polygon points="119.9873,430.778 125.2533,430.778 133.9894,443.1693 128.3711,443.1693"/>
    <polygon points="143.8682,430.778 147.3742,430.778 150.6928,443.1693 144.5989,443.1693"/>
    <polygon points="148.3674,425.778 152.8824,425.778 149.7126,413.3867 158.2062,413.3867"/>
    <polygon points="148.9135,443.1693 153.6696,430.778 159.5693,430.778 168.0929,443.1693"/>
    <polygon points="172.2178,443.1693 182.1554,430.778 184.7724,430.778 180.6747,443.1693"/>
    <polygon points="180.6893,425.778 181.747,425.778 193.2108,413.3867 175.7645,413.3867"/>
    <polygon points="180.7258,413.3867 174.3482,425.778 150.2077,425.778 157.4422,413.3867"/>
    <polygon points="167.3811,408.3867 189.9915,395.9954 198.6602,395.9954 198.7096,408.3867"/>
    <polygon points="170.9007,390.9954 178.0933,378.6041 157.0966,378.6041 178.9007,390.9954"/>
    <polygon points="161.8586,390.9954 152.5004,378.6041 165.7648,378.6041 155.5794,390.9954"/>
    <polygon points="150.3631,390.9954 143.7467,390.9954 146.3501,378.6041 124.9284,378.6041"/>
    <polygon points="148.9884,395.9954 179.0573,395.9954 184.8115,408.3867 171.7099,408.3867"/>
    <polygon points="145.3955,395.9954 137.8043,408.3867 146.8313,408.3867 125.1098,395.9954"/>
    <polygon points="140.9204,408.3867 149.2269,408.3867 148.8018,395.9954 151.3138,395.9954"/>
    <polygon points="120.5054,395.9954 114.8587,408.3867 111.4827,408.3867 105.8423,395.9954"/>
    <polygon points="124.5186,390.9954 115.5943,390.9954 113.6284,378.6041 119.6456,378.6041"/>
    <polygon points="115.4462,378.6041 95.492,390.9954 103.525,390.9954 111.0048,378.6041"/>
    <polygon points="135.618,373.6041 127.7189,373.6041 131.1807,361.2128 144.1445,361.2128"/>
    <polygon points="145.3626,373.6041 141.3916,361.2128 168.0209,361.2128 158.5673,373.6041"/>
    <polygon points="134.962,361.2128 131.8754,373.6041 107.8469,373.6041 116.4554,361.2128"/>
    <polygon points="132.5965,356.2128 148.9904,356.2128 117.991,343.8215 150.552,343.8215"/>
    <polygon points="140.2542,356.2128 133.1262,356.2128 109.3364,343.8215 134.7462,343.8215"/>
    <polygon points="143.5557,356.2128 164.3282,356.2128 148.3352,343.8215 170.5612,343.8215"/>
    <polygon points="147.7893,338.8215 153.3037,326.4302 142.4047,326.4302 171.9248,338.8215"/>
    <polygon points="166.4188,338.8215 178.5142,326.4302 163.7996,326.4302 172.559,338.8215"/>
    <polygon points="176.2041,356.2128 166.0951,356.2128 165.8588,343.8215 187.8065,343.8215"/>
    <polygon points="169.8372,361.2128 203.0351,361.2128 190.4694,373.6041 182.2075,373.6041"/>
    <polygon points="176.221,373.6041 160.4551,361.2128 188.1978,361.2128 158.0825,373.6041"/>
    <polygon points="181.1833,378.6041 186.6009,390.9954"/>
    <polygon points="197.4671,378.6041 207.7923,378.6041 206.2843,390.9954 205.99,390.9954"/>
    <polygon points="195.8868,390.9954 192.8996,378.6041 200.5694,378.6041 200.4341,390.9954"/>
    <polygon points="195.3714,395.9954 201.5385,408.3867 205.2472,408.3867 200.4085,395.9954"/>
    <polygon points="216.9598,395.9954 233.7502,395.9954 237.0,408.3867 231.0283,408.3867"/>
    <polygon points="228.6903,395.9954 210.3975,408.3867 202.7354,408.3867 217.8085,395.9954"/>
    <polygon points="238.1828,408.3867 234.8685,395.9954 245.6428,395.9954 254.8095,408.3867"/>
    <polygon points="234.1086,425.778 234.9355,413.3867 257.691,413.3867 235.0759,425.778"/>
    <polygon points="228.3757,430.778 234.5856,430.778 224.4917,443.1693 230.2391,443.1693"/>
    <polygon points="215.2862,430.778 222.302,430.778 203.3958,443.1693 200.0493,443.1693"/>
    <polygon points="210.5028,430.778 218.5011,430.778 188.239,443.1693 180.1648,443.1693"/>
    <polygon points="214.0075,425.778 196.4495,425.778 192.2232,413.3867 203.4017,413.3867"/>
    <polygon points="206.7492,425.778 225.7351,425.778 199.3286,413.3867 228.6388,413.3867"/>
    <polygon points="217.463,413.3867 229.8154,413.3867 221.9161,425.778 225.4102,425.778"/>
    <polygon points="225.9031,378.6041 226.8002,378.6041 219.1376,390.9954 222.8065,390.9954"/>
    <polygon points="234.0483,378.6041 260.6165,378.6041 244.065,390.9954 255.1307,390.9954"/>
    <polygon points="242.6071,338.8215 230.4899,326.4302 256.0171,326.4302 241.4271,338.8215"/>
    <polygon points="249.5217,326.4302 259.7559,326.4302 268.7986,338.8215 270.0851,338.8215"/>
    <polygon points="250.8947,321.4302 227.9168,321.4302 228.9108,309.0388 223.8651,309.0388"/>
    <polygon points="248.635,309.0388 264.0394,321.4302 250.417,321.4302 229.9731,309.0388"/>
    <polygon points="256.2348,304.0388 251.8016,291.6476 241.5279,291.6476"/>
    <polygon points="276.5555,304.0388 267.5304,291.6476 268.9084,291.6476 273.2039,304.0388"/>
    <polygon points="280.8704,291.6476 278.9379,304.0388 243.3988,304.0388 242.3284,291.6476"/>
    <polygon points="293.1154,286.6476 320.9336,274.2562 315.3197,274.2562 326.7553,286.6476"/>
    <polygon points="231.8391,304.0388 220.3183,304.0388 235.7049,291.6476 248.3312,291.6476"/>
    <polygon points="210.3541,309.0388 213.4063,309.0388 219.0339,321.4302 194.8159,321.4302"/>
    <polygon points="209.7778,291.6476 210.9821,304.0388 204.1565,304.0388 207.8322,291.6476"/>
    <polygon points="206.5666,286.6476 222.2003,274.2562 214.1662,274.2562 229.1046,286.6476"/>
    <polygon points="216.7445,274.2562 213.4933,286.6476 184.6012,286.6476 205.0235,274.2562"/>
    <polygon points="215.2341,269.2562 199.9924,256.8649 227.2324,256.8649 207.748,269.2562"/>
    <polygon points="224.2142,256.8649 232.1319,269.2562 213.7137,269.2562 211.7105,256.8649"/>
    <polygon points="217.6071,239.4736 212.4902,239.4736 209.0157,251.8649 214.8817,251.8649"/>
    <polygon points="219.0382,234.4736 224.8012,234.4736 225.4448,222.0823 238.374,222.0823"/>
    <polygon points="211.9229,234.4736 199.2609,234.4736 205.4935,222.0823 204.0886,222.0823"/>
    <polygon points="211.0434,217.0823 187.2272,217.0823 185.6514,204.691 199.5961,204.691"/>
    <polygon points="215.8827,204.691 240.4433,204.691 237.2495,217.0823 217.5177,217.0823"/>
    <polygon points="224.4882,204.691 214.1306,204.691 208.4804,217.0823 203.4223,217.0823"/>
    <polygon points="226.4826,199.691 195.226,187.2997 217.5291,187.2997 220.809,199.691"/>
    <polygon points="220.7824,187.2997 231.0921,187.2997 244.0215,199.691 227.5506,199.691"/>
    <polygon points="220.6806,182.2997 224.3677,169.9084 203.3752,169.9084 223.9555,182.2997"/>
    <polygon points="222.8725,169.9084 248.0697,182.2997 229.7724,182.2997 232.4265,169.9084"/>
    <polygon points="206.6034,169.9084 202.5208,182.2997 201.1286,182.2997 189.6621,169.9084"/>
    <polygon points="196.9307,164.9084 176.1392,164.9084 164.6593,152.5171 200.6831,152.5171"/>
    <polygon points="192.136,152.5171 193.9536,164.9084 203.7851,152.5171"/>
    <polygon points="194.7418,147.5171 174.9755,147.5171 171.7318,135.1258 189.3311,135.1258"/>
    <polygon points="202.6066,147.5171 200.4773,147.5171 200.8751,135.1258 194.4307,135.1258"/>
    <polygon points="218.1775,152.5171 232.2008,164.9084 200.093,164.9084 200.2654,152.5171"/>
    <polygon points="221.7934,147.5171 209.6715,135.1258 227.5178,135.1258 227.6123,147.5171"/>
    <polygon points="236.4935,152.5171 251.2871,152.5171 250.1939,164.9084 228.4992,164.9084"/>
    <polygon points="240.2458,152.5171 226.4478,164.9084 240.8795,164.9084"/>
    <polygon points="240.2486,147.5171 240.5499,147.5171 238.0269,135.1258 247.629,135.1258"/>
    <polygon points="252.2038,135.1258 262.9951,135.1258 253.7166,147.5171 255.8477,147.5171"/>
    <polygon points="256.6437,130.1258 255.7023,130.1258 250.6777,117.7345 238.6033,117.7345"/>
    <polygon points="262.5648,147.5171 260.9466,147.5171 273.6528,135.1258 272.098,135.1258"/>
    <polygon points="269.4458,147.5171 264.8985,147.5171 259.3345,135.1258 287.7011,135.1258"/>
    <polygon points="291.1906,164.9084 272.4478,164.9084 268.1617,152.5171 265.3775,152.5171"/>
    <polygon points="277.1045,204.691 267.004,204.691 295.2006,217.0823 271.5641,217.0823"/>
    <polygon points="308.3157,222.0823 298.6298,234.4736 311.0694,234.4736 295.5333,222.0823"/>
    <polygon points="334.9232,152.5171 330.9462,164.9084 337.0136,152.5171"/>
    <polygon points="351.7342,117.7345 360.8812,117.7345 372.7161,130.1258 361.1781,130.1258"/>
    <polygon points="351.8925,112.7345 378.2536,100.3432 390.5608,100.3432 389.6877,112.7345"/>
    <polygon points="350.316,100.3432 334.4839,100.3432 335.9739,112.7345 326.4489,112.7345"/>
    <polygon points="347.0586,100.3432 365.902,100.3432 355.2834,112.7345 349.5774,112.7345"/>
    <polygon points="354.5384,95.3432 343.5584,95.3432 354.0834,82.9519 374.1714,82.9519"/>
    <polygon points="343.6075,82.9519 339.1379,95.3432 306.797,95.3432 306.6529,82.9519"/>
    <polygon points="346.0154,77.9519 354.7446,65.5606 347.1153,65.5606 350.9513,77.9519"/>
    <polygon points="350.5848,77.9519 344.6472,65.5606 349.8904,65.5606"/>
    <polygon points="337.7285,60.5606 321.6447,60.5606 328.9289,48.1693"/>
    <polygon points="327.0947,60.5606 307.8802,60.5606 330.4135,48.1693 326.5137,48.1693"/>
    <polygon points="324.2172,65.5606 319.5343,65.5606 325.0893,77.9519 324.657,77.9519"/>
    <polygon points="347.6676,48.1693 349.8484,48.1693 357.7975,60.5606 349.7817,60.5606"/>
    <polygon points="386.9372,48.1693 368.3467,60.5606 361.3511,60.5606 382.4117,48.1693"/>
    <polygon points="293.2672,60.5606 304.0741,48.1693 302.8163,48.1693 299.6367,60.5606"/>
    <polygon points="289.5451,60.5606 266.346,60.5606 260.9992,48.1693 267.8975,48.1693"/>
    <polygon points="280.9758,48.1693 287.0807,60.5606 273.2829,60.5606 279.5018,48.1693"/>
    <polygon points="273.2855,65.5606 251.5499,65.5606 253.2163,77.9519 257.7061,77.9519"/>
    <polygon points="282.3221,77.9519 271.8996,77.9519 263.8072,65.5606 274.2297,65.5606"/>
    <polygon points="290.7918,77.9519 284.0799,77.9519 301.5262,65.5606 309.8336,65.5606"/>
    <polygon points="274.9529,82.9519 271.4358,95.3432 274.1386,95.3432 258.633,82.9519"/>
    <polygon points="251.8032,60.5606 263.5681,48.1693 270.8564,48.1693 272.4575,60.5606"/>
    <polygon points="245.3836,60.5606 257.5457,48.1693 262.9217,48.1693 251.2987,60.5606"/>
    <polygon points="242.7613,65.5606 236.9826,65.5606 228.3197,77.9519 233.9232,77.9519"/>
    <polygon points="234.0106,65.5606 236.904,65.5606 265.4402,77.9519 229.8712,77.9519"/>
    <polygon points="224.4324,65.5606 223.9083,65.5606 210.6608,77.9519 213.0972,77.9519"/>
    <polygon points="225.0961,60.5606 218.6059,48.1693 229.6304,48.1693 229.2912,60.5606"/>
    <polygon points="223.5741,48.1693 245.5538,48.1693 225.2857,60.5606 211.3342,60.5606"/>
    <polygon points="188.9714,48.1693 196.2638,60.5606 187.3477,60.5606 195.0319,48.1693"/>
    <polygon points="185.0808,60.5606 203.5288,48.1693 211.4209,48.1693 189.0196,60.5606"/>
    <polygon points="188.1462,65.5606 193.1933,65.5606 188.5186,77.9519 184.2404,77.9519"/>
    <polygon points="181.2888,65.5606 171.1115,65.5606 190.0445,77.9519 168.0436,77.9519"/>
    <polygon points="165.3206,60.5606 148.7579,60.5606 168.6685,48.1693 183.2136,48.1693"/>
    <polygon points="162.9347,65.5606 166.7924,65.5606 161.7028,77.9519 165.8812,77.9519"/>
    <polygon points="162.08,48.1693 166.4626,48.1693 145.1403,60.5606 151.3201,60.5606"/>
    <polygon points="142.9163,65.5606 134.5028,77.9519 143.3458,77.9519 131.6599,65.5606"/>
    <polygon points="140.7436,65.5606 165.3189,65.5606 154.9627,77.9519 139.4678,77.9519"/>
    <polygon points="123.2808,65.5606 130.643,65.5606 126.5507,77.9519 115.947,77.9519"/>
    <polygon points="113.2725,65.5606 114.797,77.9519 109.2526,77.9519 101.5924,65.5606"/>
    <polygon points="107.3324,60.5606 112.859,48.1693 106.6142,48.1693 104.0534,60.5606"/>
    <polygon points="118.1485,48.1693 128.4636,48.1693 155.9652,60.5606 125.0019,60.5606"/>
    <polygon points="119.2359,48.1693 139.4301,48.1693 140.4911,60.5606 129.2443,60.5606"/>
    <polygon points="118.4364,82.9519 115.1336,95.3432 130.1501,95.3432 123.0351,82.9519"/>
    <polygon points="106.5484,95.3432 99.9666,95.3432 105.591,82.9519 97.7189,82.9519"/>
    <polygon points="95.3214,95.3432 76.0168,82.9519 95.9331,82.9519 93.8275,95.3432"/>
    <polygon points="83.6731,100.3432 82.4456,100.3432 89.8623,112.7345 95.5336,112.7345"/>
    <polygon points="77.044,100.3432 73.0755,100.3432 91.9151,112.7345 79.5613,112.7345"/>
    <polygon points="75.1706,95.3432 56.3772,82.9519 76.6076,82.9519 64.7143,95.3432"/>
    <polygon points="80.5993,77.9519 72.9558,77.9519 88.7568,65.5606"/>
    <polygon points="68.8251,77.9519 69.2089,77.9519 66.1665,65.5606 71.9943,65.5606"/>
    <polygon points="82.8044,60.5606 56.1344,48.1693 75.0469,48.1693 80.2837,60.5606"/>
    <polygon points="84.7092,60.5606 79.8754,48.1693 96.9143,48.1693 91.7389,60.5606"/>
    <polygon points="96.5255,112.7345 99.1695,100.3432 96.5327,100.3432 94.8888,112.7345"/>
    <polygon points="95.4809,117.7345 79.0102,130.1258 87.2201,130.1258 94.864,117.7345"/>
    <polygon points="94.7936,130.1258 86.0134,117.7345 93.4711,117.7345 107.6091,130.1258"/>
    <polygon points="86.464,135.1258 100.2594,135.1258 121.1473,147.5171 117.2551,147.5171"/>
    <polygon points="95.5523,152.5171 98.3483,164.9084 98.8119,164.9084 114.7868,152.5171"/>
    <polygon points="109.8585,147.5171 85.7388,147.5171 80.8494,135.1258 92.5394,135.1258"/>
    <polygon points="113.234,147.5171 100.9963,147.5171 128.4472,135.1258 138.176,135.1258"/>
    <polygon points="127.5987,152.5171 131.1982,152.5171 110.4294,164.9084 111.0798,164.9084"/>
    <polygon points="139.7091,164.9084 122.8552,164.9084 131.1019,152.5171 136.4765,152.5171"/>
    <polygon points="148.0879,164.9084 147.6972,152.5171 164.9148,152.5171 164.1034,164.9084"/>
    <polygon points="150.4318,164.9084 157.2258,152.5171 147.6583,152.5171 155.2408,164.9084"/>
    <polygon points="149.3505,169.9084 152.6631,169.9084 171.9133,182.2997 139.15,182.2997"/>
    <polygon points="156.627,182.2997 122.5144,182.2997 121.5133,169.9084 154.4196,169.9084"/>
    <polygon points="167.5766,182.2997 165.6726,182.2997 151.1884,169.9084 161.3811,169.9084"/>
    <polygon points="175.784,187.2997 189.9889,187.2997 173.3006,199.691 180.5819,199.691"/>
    <polygon points="163.8795,199.691 176.4072,199.691 147.7772,187.2997 163.5244,187.2997"/>
    <polygon points="163.4345,204.691 183.7851,204.691 180.2826,217.0823 172.7814,217.0823"/>
    <polygon points="171.2833,217.0823 158.9148,217.0823 134.9298,204.691 148.4655,204.691"/>
    <polygon points="184.3043,222.0823 182.9977,222.0823 194.7841,234.4736 164.2058,234.4736"/>
    <polygon points="188.6251,222.0823 207.9852,222.0823 191.2099,234.4736 188.3043,234.4736"/>
    <polygon points="188.6978,239.4736 196.2152,251.8649 208.552,251.8649 185.314,239.4736"/>
    <polygon points="178.4093,204.691 175.0153,217.0823 148.343,217.0823 166.2103,204.691"/>
    <polygon points="200.0474,199.691 181.3349,187.2997 211.9979,187.2997 213.769,199.691"/>
    <polygon points="192.3643,182.2997 187.3598,182.2997 166.406,169.9084 199.917,169.9084"/>
    <polygon points="171.8122,147.5171 164.4513,135.1258 177.0808,135.1258 180.3191,147.5171"/>
    <polygon points="154.3004,135.1258 166.7411,147.5171 159.5352,147.5171 131.9201,135.1258"/>
    <polygon points="147.8952,117.7345 169.1237,130.1258 157.2805,130.1258"/>
    <polygon points="148.0357,112.7345 164.1677,100.3432 148.1633,100.3432 169.8061,112.7345"/>
    <polygon points="159.1698,112.7345 171.1387,100.3432 172.3398,100.3432 167.3804,112.7345"/>
    <polygon points="166.7487,117.7345 181.4204,117.7345 183.6889,130.1258 164.7307,130.1258"/>
    <polygon points="183.923,112.7345 196.8441,100.3432 191.7467,100.3432 197.5539,112.7345"/>
    <polygon points="178.7952,100.3432 184.2738,100.3432 191.5584,112.7345 192.634,112.7345"/>
    <polygon points="191.0244,95.3432 174.3837,95.3432 187.1868,82.9519 186.2834,82.9519"/>
    <polygon points="204.8259,95.3432 214.8687,95.3432 215.6796,82.9519 231.0314,82.9519"/>
    <polygon points="206.6465,95.3432 185.5128,82.9519 190.5983,82.9519 199.8386,95.3432"/>
    <polygon points="223.2725,100.3432 219.1925,100.3432 235.2473,112.7345 209.5898,112.7345"/>
    <polygon points="220.1736,112.7345 212.4749,112.7345 217.8274,100.3432 227.8305,100.3432"/>
    <polygon points="225.9653,117.7345 213.0537,117.7345 203.231,130.1258 198.5064,130.1258"/>
    <polygon points="226.0761,117.7345 245.5825,117.7345 245.2505,130.1258 231.6174,130.1258"/>
    <polygon points="243.5807,112.7345 231.7457,100.3432 254.0371,100.3432 245.1248,112.7345"/>
    <polygon points="247.5575,112.7345 262.7712,100.3432 276.1305,100.3432 269.902,112.7345"/>
    <polygon points="244.4903,95.3432 247.1044,95.3432 236.8056,82.9519 257.1388,82.9519"/>
    <polygon points="219.4602,82.9519 219.1836,95.3432 215.282,95.3432 240.8494,82.9519"/>
    <polygon points="204.2099,130.1258 195.8909,117.7345 209.4487,117.7345 202.396,130.1258"/>
    <polygon points="202.0286,130.1258 163.8145,130.1258 189.3003,117.7345 182.543,117.7345"/>
    <polygon points="155.5283,95.3432 154.8939,82.9519 169.0627,82.9519 180.8419,95.3432"/>
    <polygon points="156.6064,82.9519 151.9633,95.3432 158.933,95.3432 140.3453,82.9519"/>
    <polygon points="141.0524,95.3432 134.2179,95.3432 141.7085,82.9519 146.719,82.9519"/>
    <polygon points="126.2905,100.3432 132.4183,100.3432 129.6328,112.7345 123.8706,112.7345"/>
    <polygon points="111.5297,112.7345 103.2569,100.3432 137.5872,100.3432 138.031,112.7345"/>
    <polygon points="112.6238,130.1258 120.304,130.1258 111.3352,117.7345 133.6953,117.7345"/>
    <polygon points="127.5195,135.1258 143.7545,135.1258 131.4154,147.5171 128.4549,147.5171"/>
    <polygon points="137.7166,117.7345 145.9572,130.1258 136.792,130.1258 116.5851,117.7345"/>
    <polygon points="103.8514,169.9084 84.0986,182.2997 96.9291,182.2997 71.837,169.9084"/>
    <polygon points="89.4511,169.9084 118.1658,169.9084 104.2567,182.2997 97.5371,182.2997"/>
    <polygon points="71.7761,169.9084 70.1966,169.9084 85.2802,182.2997 74.1715,182.2997"/>
    <polygon points="55.161,164.9084 83.9556,152.5171 93.0585,152.5171 79.1395,164.9084"/>
    <polygon points="70.2665,152.5171 108.3015,152.5171 94.0613,164.9084 78.3964,164.9084"/>
    <polygon points="71.129,147.5171 57.556,147.5171 54.2219,135.1258 82.6973,135.1258"/>
    <polygon points="54.3364,117.7345 70.1994,117.7345 84.7195,130.1258 55.7557,130.1258"/>
    <polygon points="68.7506,187.2997 84.5621,187.2997 81.7706,199.691 65.7669,199.691"/>
    <polygon points="77.1193,199.691 72.9256,187.2997 81.892,187.2997 105.4056,199.691"/>
    <polygon points="80.9866,204.691 72.1429,217.0823 66.1269,217.0823 78.6557,204.691"/>
    <polygon points="95.7593,204.691 111.7471,217.0823 116.2197,217.0823 113.3831,204.691"/>
    <polygon points="89.4966,217.0823 85.7548,204.691 90.6186,204.691 98.9078,217.0823"/>
    <polygon points="83.0969,222.0823 76.3828,222.0823 75.3988,234.4736 54.6067,234.4736"/>
    <polygon points="87.6445,239.4736 87.3443,239.4736 105.3138,251.8649 91.0565,251.8649"/>
    <polygon points="92.6831,239.4736 95.9548,239.4736 109.6329,251.8649 110.0373,251.8649"/>
    <polygon points="101.1671,222.0823 102.4021,234.4736 98.5123,234.4736 99.1487,222.0823"/>
    <polygon points="102.7058,222.0823 121.9973,234.4736 113.5122,234.4736 84.8938,222.0823"/>
    <polygon points="115.8035,239.4736 113.3157,239.4736 137.8292,251.8649 121.967,251.8649"/>
    <polygon points="122.8378,234.4736 117.0618,234.4736 124.8707,222.0823 118.3302,222.0823"/>
    <polygon points="129.1915,217.0823 129.5938,204.691 134.5344,204.691 133.5466,217.0823"/>
    <polygon points="140.6263,217.0823 130.9804,217.0823 118.0067,204.691 138.7241,204.691"/>
    <polygon points="138.3812,199.691 159.8236,187.2997 162.0128,187.2997 162.1404,199.691"/>
    <polygon points="132.5924,187.2997 143.7407,199.691 121.1407,199.691 141.5796,187.2997"/>
    <polygon points="126.0589,187.2997 125.1709,187.2997 135.9779,199.691 101.5579,199.691"/>
    <polygon points="120.58,199.691 99.075,199.691 85.7509,187.2997 109.7941,187.2997"/>
    <polygon points="141.0595,182.2997 121.9522,182.2997 111.1518,169.9084 118.2388,169.9084"/>
    <polygon points="72.9633,239.4736 90.7039,239.4736 78.9607,251.8649 55.9331,251.8649"/>
    <polygon points="83.6575,256.8649 103.4636,269.2562 95.8788,269.2562"/>
    <polygon points="87.299,274.2562 109.5789,286.6476 78.1989,286.6476 80.9797,274.2562"/>
    <polygon points="63.4616,269.2562 56.0496,269.2562 71.0006,256.8649 92.2798,256.8649"/>
    <polygon points="64.7529,286.6476 64.1989,274.2562 91.2819,274.2562 75.1899,286.6476"/>
    <polygon points="56.6391,304.0388 72.1162,291.6476 62.1326,291.6476 80.3739,304.0388"/>
    <polygon points="56.7164,309.0388 88.4316,309.0388 63.2213,321.4302 85.2277,321.4302"/>
    <polygon points="75.02,304.0388 80.3868,291.6476 97.2823,291.6476 103.3341,304.0388"/>
    <polygon points="80.4152,326.4302 87.7985,338.8215 83.1662,338.8215"/>
    <polygon points="94.1096,326.4302 82.7066,338.8215 93.0032,338.8215 77.7128,326.4302"/>
    <polygon points="102.1699,326.4302 113.5023,326.4302 112.0984,338.8215 113.5145,338.8215"/>
    <polygon points="102.8291,321.4302 93.7174,321.4302 79.3099,309.0388 81.1171,309.0388"/>
    <polygon points="70.2079,343.8215 80.3062,356.2128 74.2533,356.2128 65.3107,343.8215"/>
    <polygon points="69.289,361.2128 66.7003,361.2128 78.8789,373.6041 80.2851,373.6041"/>
    <polygon points="185.1628,304.0388 208.9098,291.6476 209.48,291.6476 195.7577,304.0388"/>
  </g>
</svg>
