<?xml version="1.0" encoding="utf-8" ?>
<svg xmlns="http://www.w3.org/2000/svg" xmlns:cc="http://creativecommons.org/ns" xmlns:dc="http://purl.org/dc/elements/1.1/" xmlns:ev="http://www.w3.org/2001/xml-events" xmlns:inkscape="http://www.inkscape.org/namespaces/inkscape" xmlns:rdf="http://www.w3.org/1999/02/22-rdf-syntax-ns" xmlns:sodipodi="http://sodipodi.sourceforge.net/DTD/sodipodi-0.dtd" xmlns:xlink="http://www.w3.org/1999/xlink" baseProfile="tiny" height="12.99999993cm" version="1.2" viewBox="0 0 774.80315 491.33858" width="20.50000001cm">
  <metadata>
    <rdf:RDF>
      <cc:Work>
        <dc:format>image/svg+xml</dc:format>
        <dc:source>vpype read '.\day05_vera_molnar\output\vera_molnar_similar.svg' rotate 180 linemerge linesimplify reloop linesort write '%prop.vp_source.with_stem(prop.vp_source.stem + '&quot;'&quot;'_vpype'&quot;'&quot;')%' gwrite '.\day05_vera_molnar\output\vera_molnar_similar.svg.gcode'
</dc:source>
        <dc:date>2024-01-03T23:18:42.016282</dc:date>
      </cc:Work>
    </rdf:RDF>
  </metadata>
  <defs/>
  <g fill="none" id="layer1" inkscape:groupmode="layer" inkscape:label="1" stroke="#000014" stroke-width="0.3" style="display:inline">
    <polygon points="588.3895,440.6693 559.42,440.6693 556.5241,419.9001 569.3598,419.9001"/>
    <polygon points="553.3825,440.6693 543.0883,440.6693 523.0623,419.9001 545.3886,419.9001"/>
    <polygon points="525.4599,419.9001 520.3895,440.6693 499.5428,440.6693 496.4844,419.9001"/>
    <polygon points="503.5274,409.9001 504.8243,389.1308 509.7849,389.1308 510.5306,409.9001"/>
    <polygon points="482.4565,409.9001 474.547,409.9001 485.0572,389.1308 501.6044,389.1308"/>
    <polygon points="459.0208,419.9001 456.2574,440.6693 454.9846,440.6693 460.8376,419.9001"/>
    <polygon points="455.5234,409.9001 450.6299,409.9001 447.2178,389.1308 457.1918,389.1308"/>
    <polygon points="436.9273,389.1308 442.885,389.1308 447.984,409.9001 412.6487,409.9001"/>
    <polygon points="452.7424,379.1308 441.9174,358.3616 473.291,358.3616 457.1941,379.1308"/>
    <polygon points="439.1182,358.3616 428.3597,379.1308 417.4452,379.1308 417.6446,358.3616"/>
    <polygon points="457.1983,348.3616 443.596,348.3616 457.5654,327.5924 477.8663,327.5924"/>
    <polygon points="456.6374,317.5924 455.8914,317.5924 442.7883,296.8231 466.1361,296.8231"/>
    <polygon points="425.847,327.5924 447.5017,348.3616 409.9465,348.3616 414.2639,327.5924"/>
    <polygon points="397.4484,317.5924 396.4815,296.8231 395.0278,296.8231 412.027,317.5924"/>
    <polygon points="390.8914,327.5924 396.622,327.5924 396.006,348.3616 406.2533,348.3616"/>
    <polygon points="390.2101,348.3616 375.6578,348.3616 368.7158,327.5924 378.3742,327.5924"/>
    <polygon points="382.1558,358.3616 389.32,379.1308 376.3762,379.1308 379.6005,358.3616"/>
    <polygon points="362.1894,358.3616 346.6284,379.1308 335.7941,379.1308 346.232,358.3616"/>
    <polygon points="336.3888,348.3616 351.0244,327.5924 358.6425,327.5924 347.795,348.3616"/>
    <polygon points="311.4139,348.3616 318.8586,327.5924 311.4272,327.5924 327.4134,348.3616"/>
    <polygon points="293.6861,348.3616 292.5476,348.3616 269.9153,327.5924 288.5527,327.5924"/>
    <polygon points="290.5061,379.1308 278.1875,358.3616 296.6481,358.3616 306.0519,379.1308"/>
    <polygon points="290.1505,389.1308 295.6176,409.9001 276.6137,409.9001 284.9436,389.1308"/>
    <polygon points="301.4976,379.1308 295.5824,358.3616 332.0495,358.3616 330.7849,379.1308"/>
    <polygon points="302.8004,409.9001 303.0563,389.1308 315.2022,389.1308 335.868,409.9001"/>
    <polygon points="296.701,419.9001 285.5734,440.6693 289.5992,440.6693 291.5841,419.9001"/>
    <polygon points="317.372,440.6693 296.9934,440.6693 313.3507,419.9001 332.9635,419.9001"/>
    <polygon points="345.8391,440.6693 340.9022,440.6693 323.3474,419.9001 338.1874,419.9001"/>
    <polygon points="384.154,419.9001 390.1519,440.6693 358.8301,440.6693 369.1209,419.9001"/>
    <polygon points="402.7523,440.6693 400.2531,440.6693 405.9211,419.9001 405.526,419.9001"/>
    <polygon points="427.7063,419.9001 426.1347,419.9001 449.9978,440.6693 420.7714,440.6693"/>
    <polygon points="388.3943,389.1308 402.0148,389.1308 394.5509,409.9001 388.7502,409.9001"/>
    <polygon points="371.6784,389.1308 374.1476,409.9001 355.5163,409.9001 363.9408,389.1308"/>
    <polygon points="349.6718,389.1308 353.778,389.1308 355.7948,409.9001 332.3059,409.9001"/>
    <polygon points="407.7935,358.3616 394.5599,358.3616 413.8847,379.1308 381.1283,379.1308"/>
    <polygon points="429.3979,296.8231 447.611,296.8231 439.54,317.5924 422.4102,317.5924"/>
    <polygon points="421.7584,286.8231 381.2224,286.8231 403.0053,266.0539 396.0019,266.0539"/>
    <polygon points="426.3042,266.0539 434.3618,286.8231 433.8032,286.8231 431.946,266.0539"/>
    <polygon points="456.1422,266.0539 471.609,286.8231 437.0944,286.8231 447.296,266.0539"/>
    <polygon points="472.4802,256.0539 455.4098,256.0539 462.573,235.2847 473.6549,235.2847"/>
    <polygon points="490.9834,266.0539 500.6036,266.0539 505.022,286.8231 486.677,286.8231"/>
    <polygon points="496.4309,266.0539 510.378,266.0539 530.3552,286.8231 515.6595,286.8231"/>
    <polygon points="500.1596,256.0539 475.0152,256.0539 491.2972,235.2847 496.3102,235.2847"/>
    <polygon points="500.5179,235.2847 526.8558,235.2847 523.1135,256.0539 500.938,256.0539"/>
    <polygon points="510.983,204.5154 523.3865,204.5154 533.1277,225.2847 504.5195,225.2847"/>
    <polygon points="527.0813,194.5154 536.9257,173.7462 553.5413,173.7462 561.5502,194.5154"/>
    <polygon points="524.2297,173.7462 512.9442,194.5154 502.4802,194.5154 519.3831,173.7462"/>
    <polygon points="523.8819,163.7462 535.254,142.977 551.7424,142.977 547.5551,163.7462"/>
    <polygon points="495.2717,163.7462 504.9496,142.977 533.3276,142.977 534.7621,163.7462"/>
    <polygon points="482.621,163.7462 484.416,142.977 487.1849,142.977 484.7946,163.7462"/>
    <polygon points="481.6733,173.7462 486.1396,173.7462 499.2602,194.5154 482.7492,194.5154"/>
    <polygon points="452.5231,173.7462 461.1185,173.7462 462.8623,194.5154 446.9787,194.5154"/>
    <polygon points="451.2533,204.5154 455.7351,204.5154 470.8464,225.2847 450.944,225.2847"/>
    <polygon points="428.1158,194.5154 423.5129,173.7462 423.1234,173.7462 447.8405,194.5154"/>
    <polygon points="409.6666,204.5154 431.3749,204.5154 433.4316,225.2847 410.3538,225.2847"/>
    <polygon points="389.8317,204.5154 372.5027,225.2847 363.7286,225.2847 365.6784,204.5154"/>
    <polygon points="386.4712,194.5154 373.4658,194.5154 358.6115,173.7462 381.0874,173.7462"/>
    <polygon points="386.101,194.5154 388.845,173.7462 413.3472,173.7462 412.3418,194.5154"/>
    <polygon points="365.1722,194.5154 346.6383,194.5154 350.8756,173.7462 342.0399,173.7462"/>
    <polygon points="355.3499,225.2847 327.8844,225.2847 329.4322,204.5154 352.7341,204.5154"/>
    <polygon points="348.8499,256.0539 345.5132,235.2847 340.86,235.2847 359.8954,256.0539"/>
    <polygon points="341.6832,266.0539 351.5645,286.8231 349.9093,286.8231 323.6049,266.0539"/>
    <polygon points="362.6979,256.0539 359.6484,235.2847 379.0577,235.2847 387.8766,256.0539"/>
    <polygon points="393.2441,256.0539 385.2674,235.2847 401.8933,235.2847 404.6887,256.0539"/>
    <polygon points="391.6632,225.2847 400.4719,204.5154 394.2928,204.5154 412.7128,225.2847"/>
    <polygon points="427.3646,235.2847 439.7441,235.2847 437.344,256.0539 418.775,256.0539"/>
    <polygon points="485.0092,204.5154 503.8514,204.5154 506.8217,225.2847 487.8221,225.2847"/>
    <polygon points="463.9415,142.977 451.715,142.977 478.8503,163.7462 465.1066,163.7462"/>
    <polygon points="461.2631,132.977 448.9494,132.977 448.9638,112.2077 473.7317,112.2077"/>
    <polygon points="470.2396,102.2077 481.626,81.4385 481.2518,81.4385 490.8722,102.2077"/>
    <polygon points="461.3264,81.4385 455.0831,81.4385 464.9248,102.2077 443.8654,102.2077"/>
    <polygon points="470.1078,50.6693 460.6285,71.4385 448.3307,71.4385 439.3429,50.6693"/>
    <polygon points="504.0369,50.6693 487.2223,71.4385 491.2299,71.4385 470.1558,50.6693"/>
    <polygon points="527.4802,71.4385 516.6476,71.4385 511.1193,50.6693 522.0092,50.6693"/>
    <polygon points="524.0059,81.4385 561.039,81.4385 549.2128,102.2077 526.4613,102.2077"/>
    <polygon points="541.924,71.4385 550.5143,50.6693 548.3356,50.6693 561.6278,71.4385"/>
    <polygon points="574.661,71.4385 551.6696,71.4385 551.4055,50.6693 588.4156,50.6693"/>
    <polygon points="577.3551,81.4385 593.5444,81.4385 566.4714,102.2077 562.9124,102.2077"/>
    <polygon points="530.4675,102.2077 507.5242,102.2077 520.3815,81.4385 524.3805,81.4385"/>
    <polygon points="512.1436,112.2077 530.4169,112.2077 522.3782,132.977 499.7889,132.977"/>
    <polygon points="499.6052,132.977 480.6697,132.977 484.764,112.2077 493.7918,112.2077"/>
    <polygon points="550.6136,132.977 547.0711,112.2077 563.0026,112.2077 546.4319,132.977"/>
    <polygon points="590.6391,132.977 557.0172,132.977 553.9027,112.2077 573.175,112.2077"/>
    <polygon points="592.2969,163.7462 561.2439,163.7462 561.63,142.977 589.5785,142.977"/>
    <polygon points="586.1883,194.5154 552.6607,194.5154 559.8546,173.7462 580.0749,173.7462"/>
    <polygon points="555.319,204.5154 546.6478,225.2847 542.6171,225.2847 523.1499,204.5154"/>
    <polygon points="571.6867,225.2847 554.1351,225.2847 558.182,204.5154 589.416,204.5154"/>
    <polygon points="567.9184,256.0539 566.3193,256.0539 563.3355,235.2847 575.2566,235.2847"/>
    <polygon points="556.1956,256.0539 549.8785,256.0539 548.3603,235.2847 542.6853,235.2847"/>
    <polygon points="577.9395,266.0539 568.0483,286.8231 555.2015,286.8231 564.3928,266.0539"/>
    <polygon points="571.3054,296.8231 582.2151,296.8231 586.0985,317.5924 567.372,317.5924"/>
    <polygon points="563.8533,296.8231 541.3573,317.5924 534.5896,317.5924 546.2386,296.8231"/>
    <polygon points="547.2776,286.8231 542.5434,286.8231 542.4215,266.0539 539.4453,266.0539"/>
    <polygon points="511.5374,296.8231 524.1992,317.5924 504.6972,317.5924 502.1914,296.8231"/>
    <polygon points="492.8075,296.8231 495.1381,317.5924 469.0481,317.5924 479.9851,296.8231"/>
    <polygon points="495.9137,327.5924 507.3861,348.3616 487.054,348.3616 478.7491,327.5924"/>
    <polygon points="510.9014,327.5924 533.1224,348.3616 519.1871,348.3616 501.4867,327.5924"/>
    <polygon points="519.5861,358.3616 511.1465,379.1308 498.6047,379.1308 512.4092,358.3616"/>
    <polygon points="543.3258,348.3616 534.6131,348.3616 529.6478,327.5924 557.7044,327.5924"/>
    <polygon points="551.8929,379.1308 545.7057,379.1308 529.1025,358.3616 543.814,358.3616"/>
    <polygon points="550.4773,389.1308 551.894,389.1308 550.8292,409.9001 549.9172,409.9001"/>
    <polygon points="569.3629,379.1308 560.0322,358.3616 593.6901,358.3616 573.8555,379.1308"/>
    <polygon points="590.704,389.1308 567.1259,409.9001 554.57,409.9001 562.5711,389.1308"/>
    <polygon points="576.0008,348.3616 578.7574,348.3616 564.8324,327.5924 591.8874,327.5924"/>
    <polygon points="499.7857,379.1308 482.7396,379.1308 478.3906,358.3616 499.5305,358.3616"/>
    <polygon points="505.7872,440.6693 477.0117,440.6693 471.0112,419.9001 484.1028,419.9001"/>
    <polygon points="368.8637,296.8231 383.4976,296.8231 391.2158,317.5924 361.8031,317.5924"/>
    <polygon points="371.932,286.8231 377.1158,286.8231 355.1151,266.0539 376.5746,266.0539"/>
    <polygon points="342.4112,317.5924 351.0414,317.5924 335.9867,296.8231 346.3753,296.8231"/>
    <polygon points="310.3696,317.5924 311.6362,317.5924 314.668,296.8231 316.7502,296.8231"/>
    <polygon points="300.4985,317.5924 273.1183,317.5924 274.2186,296.8231 286.9814,296.8231"/>
    <polygon points="296.7468,286.8231 302.5474,266.0539 327.8959,266.0539 328.5577,286.8231"/>
    <polygon points="268.7124,286.8231 256.5362,286.8231 246.0795,266.0539 253.296,266.0539"/>
    <polygon points="267.3366,286.8231 267.3394,266.0539 305.4104,266.0539 280.0397,286.8231"/>
    <polygon points="244.6486,296.8231 233.2842,317.5924 209.01,317.5924 215.1568,296.8231"/>
    <polygon points="219.1074,286.8231 232.1078,266.0539 249.465,266.0539 224.5178,286.8231"/>
    <polygon points="197.3999,286.8231 199.5263,266.0539 213.3858,266.0539 218.2466,286.8231"/>
    <polygon points="194.2981,317.5924 193.6481,317.5924 184.1001,296.8231 210.931,296.8231"/>
    <polygon points="206.9141,348.3616 190.1776,327.5924 203.6638,327.5924 216.5596,348.3616"/>
    <polygon points="212.3068,379.1308 182.8928,379.1308 194.0817,358.3616 217.7157,358.3616"/>
    <polygon points="199.0186,389.1308 222.584,409.9001 201.4014,409.9001 189.7641,389.1308"/>
    <polygon points="191.8017,419.9001 217.7281,419.9001 218.7034,440.6693 202.1905,440.6693"/>
    <polygon points="242.7657,419.9001 275.7579,419.9001 257.4888,440.6693 259.5234,440.6693"/>
    <polygon points="240.4647,440.6693 228.952,440.6693 221.0381,419.9001 236.227,419.9001"/>
    <polygon points="241.6273,389.1308 273.4937,389.1308 256.1342,409.9001 260.0466,409.9001"/>
    <polygon points="236.1162,389.1308 223.323,409.9001 233.1713,409.9001 231.531,389.1308"/>
    <polygon points="236.9495,379.1308 228.8966,379.1308 232.7808,358.3616 234.0149,358.3616"/>
    <polygon points="254.6106,358.3616 261.0917,379.1308 257.8952,379.1308 262.5702,358.3616"/>
    <polygon points="243.9604,348.3616 227.4118,348.3616 214.809,327.5924 229.0708,327.5924"/>
    <polygon points="256.9353,327.5924 260.6494,327.5924 272.8186,348.3616 256.0687,348.3616"/>
    <polygon points="262.5993,317.5924 244.4972,296.8231 276.2978,296.8231 262.929,317.5924"/>
    <polygon points="251.6886,256.0539 241.8144,235.2847 263.2487,235.2847 253.7972,256.0539"/>
    <polygon points="221.7945,256.0539 224.2282,235.2847 243.2554,235.2847 231.2696,256.0539"/>
    <polygon points="225.8699,225.2847 231.8304,225.2847 223.2468,204.5154 238.0072,204.5154"/>
    <polygon points="210.1264,225.2847 183.3602,225.2847 205.3311,204.5154 196.4398,204.5154"/>
    <polygon points="188.6829,235.2847 203.5599,235.2847 215.9224,256.0539 186.5044,256.0539"/>
    <polygon points="181.113,194.5154 181.4688,173.7462 215.0145,173.7462 197.8037,194.5154"/>
    <polygon points="211.2285,173.7462 248.0336,173.7462 230.8096,194.5154 224.5702,194.5154"/>
    <polygon points="242.7064,163.7462 237.4308,142.977 269.5472,142.977 270.7786,163.7462"/>
    <polygon points="236.251,142.977 248.8527,163.7462 212.3411,163.7462 227.0694,142.977"/>
    <polygon points="255.8101,132.977 252.6887,132.977 257.6314,112.2077 271.6982,112.2077"/>
    <polygon points="283.5136,142.977 296.6037,142.977 280.895,163.7462 281.1223,163.7462"/>
    <polygon points="281.1812,112.2077 297.4823,132.977 273.3301,132.977 291.1139,112.2077"/>
    <polygon points="309.0348,112.2077 317.8225,112.2077 328.0855,132.977 307.05,132.977"/>
    <polygon points="317.9394,102.2077 309.3928,81.4385 314.3832,81.4385 333.9928,102.2077"/>
    <polygon points="328.2866,71.4385 296.8479,71.4385 311.7714,50.6693 322.0761,50.6693"/>
    <polygon points="328.6482,71.4385 342.3902,50.6693 340.1729,50.6693 346.0438,71.4385"/>
    <polygon points="344.7492,81.4385 351.9341,81.4385 357.416,102.2077 345.9412,102.2077"/>
    <polygon points="351.7982,112.2077 342.6598,132.977 327.7373,132.977 331.408,112.2077"/>
    <polygon points="365.2734,112.2077 369.5329,112.2077 393.3124,132.977 367.0489,132.977"/>
    <polygon points="375.6463,102.2077 374.6723,81.4385 392.5223,81.4385 372.9278,102.2077"/>
    <polygon points="405.154,81.4385 402.84,81.4385 401.4266,102.2077 392.9854,102.2077"/>
    <polygon points="403.1228,71.4385 391.9065,71.4385 382.5591,50.6693 416.3974,50.6693"/>
    <polygon points="430.0674,71.4385 418.1878,71.4385 417.7534,50.6693 443.8137,50.6693"/>
    <polygon points="423.712,102.2077 413.1552,102.2077 434.5051,81.4385 437.4377,81.4385"/>
    <polygon points="419.3646,132.977 419.2117,112.2077 429.9795,112.2077 425.2476,132.977"/>
    <polygon points="406.4504,132.977 383.8049,112.2077 418.5203,112.2077 418.9341,132.977"/>
    <polygon points="406.4377,142.977 422.0572,142.977 414.3797,163.7462 395.5015,163.7462"/>
    <polygon points="419.2346,163.7462 424.1378,142.977 445.0466,142.977 425.2944,163.7462"/>
    <polygon points="353.535,163.7462 354.1392,142.977 378.4826,142.977 367.1551,163.7462"/>
    <polygon points="345.027,142.977 353.8019,163.7462 334.4381,163.7462 326.1796,142.977"/>
    <polygon points="321.6875,163.7462 305.0871,142.977 309.5765,142.977 312.3925,163.7462"/>
    <polygon points="310.538,194.5154 294.5867,173.7462 311.9233,173.7462 311.2744,194.5154"/>
    <polygon points="299.2545,194.5154 291.494,194.5154 286.5781,173.7462 292.4839,173.7462"/>
    <polygon points="291.951,204.5154 298.771,204.5154 289.3671,225.2847 285.698,225.2847"/>
    <polygon points="270.3245,194.5154 252.3165,194.5154 239.3964,173.7462 277.3134,173.7462"/>
    <polygon points="252.2334,204.5154 259.4548,204.5154 269.0706,225.2847 255.7047,225.2847"/>
    <polygon points="286.0431,235.2847 284.81,256.0539 274.0628,256.0539 283.8392,235.2847"/>
    <polygon points="302.291,235.2847 323.515,235.2847 319.5174,256.0539 318.4418,256.0539"/>
    <polygon points="318.2255,204.5154 323.9682,225.2847 308.7868,225.2847 303.3314,204.5154"/>
    <polygon points="212.6469,132.977 235.743,112.2077 250.4998,112.2077 227.4182,132.977"/>
    <polygon points="217.8313,112.2077 208.2838,132.977 192.4088,132.977 185.407,112.2077"/>
    <polygon points="210.9602,102.2077 204.446,102.2077 202.6978,81.4385 217.3764,81.4385"/>
    <polygon points="231.5723,102.2077 211.9631,81.4385 246.6336,81.4385 243.6156,102.2077"/>
    <polygon points="254.8723,81.4385 264.5711,81.4385 265.671,102.2077 261.1663,102.2077"/>
    <polygon points="276.1212,81.4385 296.0758,81.4385 302.403,102.2077 291.9559,102.2077"/>
    <polygon points="278.4154,71.4385 268.707,50.6693 300.0899,50.6693 282.9069,71.4385"/>
    <polygon points="253.944,50.6693 272.7928,71.4385 259.8689,71.4385 244.7684,50.6693"/>
    <polygon points="237.7918,50.6693 241.8003,71.4385 218.4343,71.4385 227.5367,50.6693"/>
    <polygon points="208.2913,50.6693 203.6759,50.6693 196.5279,71.4385 201.8142,71.4385"/>
    <polygon points="189.9852,142.977 199.2262,142.977 211.1383,163.7462 188.8078,163.7462"/>
    <polygon points="370.4276,50.6693 378.1629,71.4385 378.7035,71.4385 372.3484,50.6693"/>
  </g>
</svg>
